<svg xmlns="http://www.w3.org/2000/svg" viewBox="0 0 36200 200" width="36200" height="200"><g fill="#ffffff" stroke-width="5" stroke-miterlimit="10"><path d="M100 15.09c-22.511 0-44.123 8.952-60.04 24.87C24.042 55.877 15.09 77.489 15.09 100c0 22.511 8.952 44.123 24.87 60.04 15.917 15.918 37.529 24.87 60.04 24.87 22.511 0 44.123-8.952 60.04-24.87 15.918-15.917 24.87-37.529 24.87-60.04 0-22.511-8.952-44.123-24.87-60.04-15.917-15.918-37.529-24.87-60.04-24.87z" stroke="#00000000"/><path d="M50.7 104.76l28.56 28.57 70.04-66.66" stroke="#000000" stroke-dasharray="0,137.0880509438512" stroke-dashoffset="137.088051"/></g><g fill="#ffffff" stroke-width="5" stroke-miterlimit="10"><path d="M300 15.09c-22.511 0-44.123 8.952-60.04 24.87-15.918 15.917-24.87 37.529-24.87 60.04 0 22.511 8.952 44.123 24.87 60.04 15.917 15.918 37.529 24.87 60.04 24.87 22.511 0 44.123-8.952 60.04-24.87 15.918-15.917 24.87-37.529 24.87-60.04 0-22.511-8.952-44.123-24.87-60.04-15.917-15.918-37.529-24.87-60.04-24.87z" stroke="#00000000"/><path d="M250.7 104.76l28.56 28.57 70.04-66.66" stroke="#000000" stroke-dasharray="0.020160138059936942,137.06789080579125" stroke-dashoffset="137.088051"/></g><g fill="#ffffff" stroke-width="5" stroke-miterlimit="10"><path d="M500 15.09c-22.511 0-44.123 8.952-60.04 24.87-15.918 15.917-24.87 37.529-24.87 60.04 0 22.511 8.952 44.123 24.87 60.04 15.917 15.918 37.529 24.87 60.04 24.87 22.511 0 44.123-8.952 60.04-24.87 15.918-15.917 24.87-37.529 24.87-60.04 0-22.511-8.952-44.123-24.87-60.04-15.917-15.918-37.529-24.87-60.04-24.87z" stroke="#00000000"/><path d="M450.7 104.76l28.56 28.57 70.04-66.66" stroke="#000000" stroke-dasharray="0.08199250069975822,137.00605844315143" stroke-dashoffset="137.088051"/></g><g fill="#ffffff" stroke-width="5" stroke-miterlimit="10"><path d="M700 15.09c-22.511 0-44.123 8.952-60.04 24.87-15.918 15.917-24.87 37.529-24.87 60.04 0 22.511 8.952 44.123 24.87 60.04 15.917 15.918 37.529 24.87 60.04 24.87 22.511 0 44.123-8.952 60.04-24.87 15.918-15.917 24.87-37.529 24.87-60.04 0-22.511-8.952-44.123-24.87-60.04-15.917-15.918-37.529-24.87-60.04-24.87z" stroke="#00000000"/><path d="M650.7 104.76l28.56 28.57 70.04-66.66" stroke="#000000" stroke-dasharray="0.187630505327188,136.90042043852398" stroke-dashoffset="137.088051"/></g><g fill="#ffffff" stroke-width="5" stroke-miterlimit="10"><path d="M900 15.09c-22.511 0-44.123 8.952-60.04 24.87-15.918 15.917-24.87 37.529-24.87 60.04 0 22.511 8.952 44.123 24.87 60.04 15.917 15.918 37.529 24.87 60.04 24.87 22.511 0 44.123-8.952 60.04-24.87 15.918-15.917 24.87-37.529 24.87-60.04 0-22.511-8.952-44.123-24.87-60.04-15.917-15.918-37.529-24.87-60.04-24.87z" stroke="#00000000"/><path d="M850.7 104.76l28.56 28.57 70.04-66.66" stroke="#000001" stroke-dasharray="0.3393571345962085,136.74869380925497" stroke-dashoffset="137.088051"/></g><g fill="#ffffff" stroke-width="5" stroke-miterlimit="10"><path d="M1100 15.09c-22.511 0-44.123 8.952-60.04 24.87-15.918 15.917-24.87 37.529-24.87 60.04 0 22.511 8.952 44.123 24.87 60.04 15.917 15.918 37.529 24.87 60.04 24.87 22.511 0 44.123-8.952 60.04-24.87 15.918-15.917 24.87-37.529 24.87-60.04 0-22.511-8.952-44.123-24.87-60.04-15.917-15.918-37.529-24.87-60.04-24.87z" stroke="#00000000"/><path d="M1050.7 104.76l28.56 28.57 70.04-66.66" stroke="#000001" stroke-dasharray="0.53961667542212,136.54843426842905" stroke-dashoffset="137.088051"/></g><g fill="#ffffff" stroke-width="5" stroke-miterlimit="10"><path d="M1300 15.09c-22.511 0-44.123 8.952-60.04 24.87-15.918 15.917-24.87 37.529-24.87 60.04 0 22.511 8.952 44.123 24.87 60.04 15.917 15.918 37.529 24.87 60.04 24.87 22.511 0 44.123-8.952 60.04-24.87 15.918-15.917 24.87-37.529 24.87-60.04 0-22.511-8.952-44.123-24.87-60.04-15.917-15.918-37.529-24.87-60.04-24.87z" stroke="#00000000"/><path d="M1250.7 104.76l28.56 28.57 70.04-66.66" stroke="#000001" stroke-dasharray="0.7910271488456184,136.29702379500557" stroke-dashoffset="137.088051"/></g><g fill="#ffffff" stroke-width="5" stroke-miterlimit="10"><path d="M1500 15.09c-22.511 0-44.123 8.952-60.04 24.87-15.918 15.917-24.87 37.529-24.87 60.04 0 22.511 8.952 44.123 24.87 60.04 15.917 15.918 37.529 24.87 60.04 24.87 22.511 0 44.123-8.952 60.04-24.87 15.918-15.917 24.87-37.529 24.87-60.04 0-22.511-8.952-44.123-24.87-60.04-15.917-15.918-37.529-24.87-60.04-24.87z" stroke="#00000000"/><path d="M1450.7 104.76l28.56 28.57 70.04-66.66" stroke="#000002" stroke-dasharray="1.0963933482876393,135.99165759556354" stroke-dashoffset="137.088051"/></g><g fill="#ffffff" stroke-width="5" stroke-miterlimit="10"><path d="M1700 15.09c-22.511 0-44.123 8.952-60.04 24.87-15.918 15.917-24.87 37.529-24.87 60.04 0 22.511 8.952 44.123 24.87 60.04 15.917 15.918 37.529 24.87 60.04 24.87 22.511 0 44.123-8.952 60.04-24.87 15.918-15.917 24.87-37.529 24.87-60.04 0-22.511-8.952-44.123-24.87-60.04-15.917-15.918-37.529-24.87-60.04-24.87z" stroke="#00000000"/><path d="M1650.7 104.76l28.56 28.57 70.04-66.66" stroke="#000003" stroke-dasharray="1.4587203439309284,135.62933059992025" stroke-dashoffset="137.088051"/></g><g fill="#ffffff" stroke-width="5" stroke-miterlimit="10"><path d="M1900 15.09c-22.511 0-44.123 8.952-60.04 24.87-15.918 15.917-24.87 37.529-24.87 60.04 0 22.511 8.952 44.123 24.87 60.04 15.917 15.918 37.529 24.87 60.04 24.87 22.511 0 44.123-8.952 60.04-24.87 15.918-15.917 24.87-37.529 24.87-60.04 0-22.511-8.952-44.123-24.87-60.04-15.917-15.918-37.529-24.87-60.04-24.87z" stroke="#00000000"/><path d="M1850.7 104.76l28.56 28.57 70.04-66.66" stroke="#000003" stroke-dasharray="1.8812272283276812,135.2068237155235" stroke-dashoffset="137.088051"/></g><g fill="#ffffff" stroke-width="5" stroke-miterlimit="10"><path d="M2100 15.09c-22.511 0-44.123 8.952-60.04 24.87-15.918 15.917-24.87 37.529-24.87 60.04 0 22.511 8.952 44.123 24.87 60.04 15.917 15.918 37.529 24.87 60.04 24.87 22.511 0 44.123-8.952 60.04-24.87 15.918-15.917 24.87-37.529 24.87-60.04 0-22.511-8.952-44.123-24.87-60.04-15.917-15.918-37.529-24.87-60.04-24.87z" stroke="#00000000"/><path d="M2050.7 104.76l28.56 28.57 70.04-66.66" stroke="#000004" stroke-dasharray="2.3673607654633573,134.72069017838783" stroke-dashoffset="137.088051"/></g><g fill="#ffffff" stroke-width="5" stroke-miterlimit="10"><path d="M2300 15.09c-22.511 0-44.123 8.952-60.04 24.87-15.918 15.917-24.87 37.529-24.87 60.04 0 22.511 8.952 44.123 24.87 60.04 15.917 15.918 37.529 24.87 60.04 24.87 22.511 0 44.123-8.952 60.04-24.87 15.918-15.917 24.87-37.529 24.87-60.04 0-22.511-8.952-44.123-24.87-60.04-15.917-15.918-37.529-24.87-60.04-24.87z" stroke="#00000000"/><path d="M2250.7 104.76l28.56 28.57 70.04-66.66" stroke="#000005" stroke-dasharray="2.92080845295667,134.16724249089452" stroke-dashoffset="137.088051"/></g><g fill="#ffffff" stroke-width="5" stroke-miterlimit="10"><path d="M2500 15.09c-22.511 0-44.123 8.952-60.04 24.87-15.918 15.917-24.87 37.529-24.87 60.04 0 22.511 8.952 44.123 24.87 60.04 15.917 15.918 37.529 24.87 60.04 24.87 22.511 0 44.123-8.952 60.04-24.87 15.918-15.917 24.87-37.529 24.87-60.04 0-22.511-8.952-44.123-24.87-60.04-15.917-15.918-37.529-24.87-60.04-24.87z" stroke="#00000000"/><path d="M2450.7 104.76l28.56 28.57 70.04-66.66" stroke="#000007" stroke-dasharray="3.545510302995606,133.54254064085558" stroke-dashoffset="137.088051"/></g><g fill="#ffffff" stroke-width="5" stroke-miterlimit="10"><path d="M2700 15.09c-22.511 0-44.123 8.952-60.04 24.87-15.918 15.917-24.87 37.529-24.87 60.04 0 22.511 8.952 44.123 24.87 60.04 15.917 15.918 37.529 24.87 60.04 24.87 22.511 0 44.123-8.952 60.04-24.87 15.918-15.917 24.87-37.529 24.87-60.04 0-22.511-8.952-44.123-24.87-60.04-15.917-15.918-37.529-24.87-60.04-24.87z" stroke="#00000000"/><path d="M2650.7 104.76l28.56 28.57 70.04-66.66" stroke="#000008" stroke-dasharray="4.2456683774987996,132.84238256635237" stroke-dashoffset="137.088051"/></g><g fill="#ffffff" stroke-width="5" stroke-miterlimit="10"><path d="M2900 15.09c-22.511 0-44.123 8.952-60.04 24.87-15.918 15.917-24.87 37.529-24.87 60.04 0 22.511 8.952 44.123 24.87 60.04 15.917 15.918 37.529 24.87 60.04 24.87 22.511 0 44.123-8.952 60.04-24.87 15.918-15.917 24.87-37.529 24.87-60.04 0-22.511-8.952-44.123-24.87-60.04-15.917-15.918-37.529-24.87-60.04-24.87z" stroke="#00000000"/><path d="M2850.7 104.76l28.56 28.57 70.04-66.66" stroke="#000009" stroke-dasharray="5.025752759725581,132.0622981841256" stroke-dashoffset="137.088051"/></g><g fill="#ffffff" stroke-width="5" stroke-miterlimit="10"><path d="M3100 15.09c-22.511 0-44.123 8.952-60.04 24.87-15.918 15.917-24.87 37.529-24.87 60.04 0 22.511 8.952 44.123 24.87 60.04 15.917 15.918 37.529 24.87 60.04 24.87 22.511 0 44.123-8.952 60.04-24.87 15.918-15.917 24.87-37.529 24.87-60.04 0-22.511-8.952-44.123-24.87-60.04-15.917-15.918-37.529-24.87-60.04-24.87z" stroke="#00000000"/><path d="M3050.7 104.76l28.56 28.57 70.04-66.66" stroke="#00000b" stroke-dasharray="5.890502188993604,131.1975487548576" stroke-dashoffset="137.088051"/></g><g fill="#ffffff" stroke-width="5" stroke-miterlimit="10"><path d="M3300 15.09c-22.511 0-44.123 8.952-60.04 24.87-15.918 15.917-24.87 37.529-24.87 60.04 0 22.511 8.952 44.123 24.87 60.04 15.917 15.918 37.529 24.87 60.04 24.87 22.511 0 44.123-8.952 60.04-24.87 15.918-15.917 24.87-37.529 24.87-60.04 0-22.511-8.952-44.123-24.87-60.04-15.917-15.918-37.529-24.87-60.04-24.87z" stroke="#00000000"/><path d="M3250.7 104.76l28.56 28.57 70.04-66.66" stroke="#00000d" stroke-dasharray="6.844917007835278,130.2431339360159" stroke-dashoffset="137.088051"/></g><g fill="#ffffff" stroke-width="5" stroke-miterlimit="10"><path d="M3500 15.09c-22.511 0-44.123 8.952-60.04 24.87-15.918 15.917-24.87 37.529-24.87 60.04 0 22.511 8.952 44.123 24.87 60.04 15.917 15.918 37.529 24.87 60.04 24.87 22.511 0 44.123-8.952 60.04-24.87 15.918-15.917 24.87-37.529 24.87-60.04 0-22.511-8.952-44.123-24.87-60.04-15.917-15.918-37.529-24.87-60.04-24.87z" stroke="#00000000"/><path d="M3450.7 104.76l28.56 28.57 70.04-66.66" stroke="#00000f" stroke-dasharray="7.894241355632121,129.19380958821907" stroke-dashoffset="137.088051"/></g><g fill="#ffffff" stroke-width="5" stroke-miterlimit="10"><path d="M3700 15.09c-22.511 0-44.123 8.952-60.04 24.87-15.918 15.917-24.87 37.529-24.87 60.04 0 22.511 8.952 44.123 24.87 60.04 15.917 15.918 37.529 24.87 60.04 24.87 22.511 0 44.123-8.952 60.04-24.87 15.918-15.917 24.87-37.529 24.87-60.04 0-22.511-8.952-44.123-24.87-60.04-15.917-15.918-37.529-24.87-60.04-24.87z" stroke="#00000000"/><path d="M3650.7 104.76l28.56 28.57 70.04-66.66" stroke="#000011" stroke-dasharray="9.04393068325353,128.04412026059765" stroke-dashoffset="137.088051"/></g><g fill="#ffffff" stroke-width="5" stroke-miterlimit="10"><path d="M3900 15.09c-22.511 0-44.123 8.952-60.04 24.87-15.918 15.917-24.87 37.529-24.87 60.04 0 22.511 8.952 44.123 24.87 60.04 15.917 15.918 37.529 24.87 60.04 24.87 22.511 0 44.123-8.952 60.04-24.87 15.918-15.917 24.87-37.529 24.87-60.04 0-22.511-8.952-44.123-24.87-60.04-15.917-15.918-37.529-24.87-60.04-24.87z" stroke="#00000000"/><path d="M3850.7 104.76l28.56 28.57 70.04-66.66" stroke="#000013" stroke-dasharray="10.299599674605899,126.78845126924529" stroke-dashoffset="137.088051"/></g><g fill="#ffffff" stroke-width="5" stroke-miterlimit="10"><path d="M4100 15.09c-22.511 0-44.123 8.952-60.04 24.87-15.918 15.917-24.87 37.529-24.87 60.04 0 22.511 8.952 44.123 24.87 60.04 15.917 15.918 37.529 24.87 60.04 24.87 22.511 0 44.123-8.952 60.04-24.87 15.918-15.917 24.87-37.529 24.87-60.04 0-22.511-8.952-44.123-24.87-60.04-15.917-15.918-37.529-24.87-60.04-24.87z" stroke="#00000000"/><path d="M4050.7 104.76l28.56 28.57 70.04-66.66" stroke="#000016" stroke-dasharray="11.666944597942836,125.42110634590834" stroke-dashoffset="137.088051"/></g><g fill="#ffffff" stroke-width="5" stroke-miterlimit="10"><path d="M4300 15.09c-22.511 0-44.123 8.952-60.04 24.87-15.918 15.917-24.87 37.529-24.87 60.04 0 22.511 8.952 44.123 24.87 60.04 15.917 15.918 37.529 24.87 60.04 24.87 22.511 0 44.123-8.952 60.04-24.87 15.918-15.917 24.87-37.529 24.87-60.04 0-22.511-8.952-44.123-24.87-60.04-15.917-15.918-37.529-24.87-60.04-24.87z" stroke="#00000000"/><path d="M4250.7 104.76l28.56 28.57 70.04-66.66" stroke="#000018" stroke-dasharray="13.151633093385376,123.9364178504658" stroke-dashoffset="137.088051"/></g><g fill="#ffffff" stroke-width="5" stroke-miterlimit="10"><path d="M4500 15.09c-22.511 0-44.123 8.952-60.04 24.87-15.918 15.917-24.87 37.529-24.87 60.04 0 22.511 8.952 44.123 24.87 60.04 15.917 15.918 37.529 24.87 60.04 24.87 22.511 0 44.123-8.952 60.04-24.87 15.918-15.917 24.87-37.529 24.87-60.04 0-22.511-8.952-44.123-24.87-60.04-15.917-15.918-37.529-24.87-60.04-24.87z" stroke="#00000000"/><path d="M4450.7 104.76l28.56 28.57 70.04-66.66" stroke="#00001b" stroke-dasharray="14.759153656910724,122.32889728694046" stroke-dashoffset="137.088051"/></g><g fill="#ffffff" stroke-width="5" stroke-miterlimit="10"><path d="M4700 15.09c-22.511 0-44.123 8.952-60.04 24.87-15.918 15.917-24.87 37.529-24.87 60.04 0 22.511 8.952 44.123 24.87 60.04 15.917 15.918 37.529 24.87 60.04 24.87 22.511 0 44.123-8.952 60.04-24.87 15.918-15.917 24.87-37.529 24.87-60.04 0-22.511-8.952-44.123-24.87-60.04-15.917-15.918-37.529-24.87-60.04-24.87z" stroke="#00000000"/><path d="M4650.7 104.76l28.56 28.57 70.04-66.66" stroke="#00001f" stroke-dasharray="16.494616972938204,120.59343397091298" stroke-dashoffset="137.088051"/></g><g fill="#ffffff" stroke-width="5" stroke-miterlimit="10"><path d="M4900 15.09c-22.511 0-44.123 8.952-60.04 24.87-15.918 15.917-24.87 37.529-24.87 60.04 0 22.511 8.952 44.123 24.87 60.04 15.917 15.918 37.529 24.87 60.04 24.87 22.511 0 44.123-8.952 60.04-24.87 15.918-15.917 24.87-37.529 24.87-60.04 0-22.511-8.952-44.123-24.87-60.04-15.917-15.918-37.529-24.87-60.04-24.87z" stroke="#00000000"/><path d="M4850.7 104.76l28.56 28.57 70.04-66.66" stroke="#000022" stroke-dasharray="18.362502325398317,118.72554861845286" stroke-dashoffset="137.088051"/></g><g fill="#ffffff" stroke-width="5" stroke-miterlimit="10"><path d="M5100 15.09c-22.511 0-44.123 8.952-60.04 24.87-15.918 15.917-24.87 37.529-24.87 60.04 0 22.511 8.952 44.123 24.87 60.04 15.917 15.918 37.529 24.87 60.04 24.87 22.511 0 44.123-8.952 60.04-24.87 15.918-15.917 24.87-37.529 24.87-60.04 0-22.511-8.952-44.123-24.87-60.04-15.917-15.918-37.529-24.87-60.04-24.87z" stroke="#00000000"/><path d="M5050.7 104.76l28.56 28.57 70.04-66.66" stroke="#000026" stroke-dasharray="20.36634531160493,116.72170563224626" stroke-dashoffset="137.088051"/></g><g fill="#ffffff" stroke-width="5" stroke-miterlimit="10"><path d="M5300 15.09c-22.511 0-44.123 8.952-60.04 24.87-15.918 15.917-24.87 37.529-24.87 60.04 0 22.511 8.952 44.123 24.87 60.04 15.917 15.918 37.529 24.87 60.04 24.87 22.511 0 44.123-8.952 60.04-24.87 15.918-15.917 24.87-37.529 24.87-60.04 0-22.511-8.952-44.123-24.87-60.04-15.917-15.918-37.529-24.87-60.04-24.87z" stroke="#00000000"/><path d="M5250.7 104.76l28.56 28.57 70.04-66.66" stroke="#00002a" stroke-dasharray="22.50836883161251,114.57968211223867" stroke-dashoffset="137.088051"/></g><g fill="#ffffff" stroke-width="5" stroke-miterlimit="10"><path d="M5500 15.09c-22.511 0-44.123 8.952-60.04 24.87-15.918 15.917-24.87 37.529-24.87 60.04 0 22.511 8.952 44.123 24.87 60.04 15.917 15.918 37.529 24.87 60.04 24.87 22.511 0 44.123-8.952 60.04-24.87 15.918-15.917 24.87-37.529 24.87-60.04 0-22.511-8.952-44.123-24.87-60.04-15.917-15.918-37.529-24.87-60.04-24.87z" stroke="#00000000"/><path d="M5450.7 104.76l28.56 28.57 70.04-66.66" stroke="#00002e" stroke-dasharray="24.78906855099664,112.29898239285455" stroke-dashoffset="137.088051"/></g><g fill="#ffffff" stroke-width="5" stroke-miterlimit="10"><path d="M5700 15.09c-22.511 0-44.123 8.952-60.04 24.87-15.918 15.917-24.87 37.529-24.87 60.04 0 22.511 8.952 44.123 24.87 60.04 15.917 15.918 37.529 24.87 60.04 24.87 22.511 0 44.123-8.952 60.04-24.87 15.918-15.917 24.87-37.529 24.87-60.04 0-22.511-8.952-44.123-24.87-60.04-15.917-15.918-37.529-24.87-60.04-24.87z" stroke="#00000000"/><path d="M5650.7 104.76l28.56 28.57 70.04-66.66" stroke="#000033" stroke-dasharray="27.206776921588933,109.88127402226225" stroke-dashoffset="137.088051"/></g><g fill="#ffffff" stroke-width="5" stroke-miterlimit="10"><path d="M5900 15.09c-22.511 0-44.123 8.952-60.04 24.87-15.918 15.917-24.87 37.529-24.87 60.04 0 22.511 8.952 44.123 24.87 60.04 15.917 15.918 37.529 24.87 60.04 24.87 22.511 0 44.123-8.952 60.04-24.87 15.918-15.917 24.87-37.529 24.87-60.04 0-22.511-8.952-44.123-24.87-60.04-15.917-15.918-37.529-24.87-60.04-24.87z" stroke="#00000000"/><path d="M5850.7 104.76l28.56 28.57 70.04-66.66" stroke="#000037" stroke-dasharray="29.757245417724413,107.33080552612677" stroke-dashoffset="137.088051"/></g><g fill="#ffffff" stroke-width="5" stroke-miterlimit="10"><path d="M6100 15.09c-22.511 0-44.123 8.952-60.04 24.87-15.918 15.917-24.87 37.529-24.87 60.04 0 22.511 8.952 44.123 24.87 60.04 15.917 15.918 37.529 24.87 60.04 24.87 22.511 0 44.123-8.952 60.04-24.87 15.918-15.917 24.87-37.529 24.87-60.04 0-22.511-8.952-44.123-24.87-60.04-15.917-15.918-37.529-24.87-60.04-24.87z" stroke="#00000000"/><path d="M6050.7 104.76l28.56 28.57 70.04-66.66" stroke="#00003c" stroke-dasharray="32.43330012447851,104.65475081937268" stroke-dashoffset="137.088051"/></g><g fill="#ffffff" stroke-width="5" stroke-miterlimit="10"><path d="M6300 15.09c-22.511 0-44.123 8.952-60.04 24.87-15.918 15.917-24.87 37.529-24.87 60.04 0 22.511 8.952 44.123 24.87 60.04 15.917 15.918 37.529 24.87 60.04 24.87 22.511 0 44.123-8.952 60.04-24.87 15.918-15.917 24.87-37.529 24.87-60.04 0-22.511-8.952-44.123-24.87-60.04-15.917-15.918-37.529-24.87-60.04-24.87z" stroke="#00000000"/><path d="M6250.7 104.76l28.56 28.57 70.04-66.66" stroke="#000042" stroke-dasharray="35.2246363603664,101.86341458348478" stroke-dashoffset="137.088051"/></g><g fill="#ffffff" stroke-width="5" stroke-miterlimit="10"><path d="M6500 15.09c-22.511 0-44.123 8.952-60.04 24.87-15.918 15.917-24.87 37.529-24.87 60.04 0 22.511 8.952 44.123 24.87 60.04 15.917 15.918 37.529 24.87 60.04 24.87 22.511 0 44.123-8.952 60.04-24.87 15.918-15.917 24.87-37.529 24.87-60.04 0-22.511-8.952-44.123-24.87-60.04-15.917-15.918-37.529-24.87-60.04-24.87z" stroke="#00000000"/><path d="M6450.7 104.76l28.56 28.57 70.04-66.66" stroke="#000047" stroke-dasharray="38.11781747947824,98.97023346437295" stroke-dashoffset="137.088051"/></g><g fill="#ffffff" stroke-width="5" stroke-miterlimit="10"><path d="M6700 15.09c-22.511 0-44.123 8.952-60.04 24.87-15.918 15.917-24.87 37.529-24.87 60.04 0 22.511 8.952 44.123 24.87 60.04 15.917 15.918 37.529 24.87 60.04 24.87 22.511 0 44.123-8.952 60.04-24.87 15.918-15.917 24.87-37.529 24.87-60.04 0-22.511-8.952-44.123-24.87-60.04-15.917-15.918-37.529-24.87-60.04-24.87z" stroke="#00000000"/><path d="M6650.7 104.76l28.56 28.57 70.04-66.66" stroke="#00004c" stroke-dasharray="41.09652609037077,95.9915248534804" stroke-dashoffset="137.088051"/></g><g fill="#ffffff" stroke-width="5" stroke-miterlimit="10"><path d="M6900 15.09c-22.511 0-44.123 8.952-60.04 24.87-15.918 15.917-24.87 37.529-24.87 60.04 0 22.511 8.952 44.123 24.87 60.04 15.917 15.918 37.529 24.87 60.04 24.87 22.511 0 44.123-8.952 60.04-24.87 15.918-15.917 24.87-37.529 24.87-60.04 0-22.511-8.952-44.123-24.87-60.04-15.917-15.918-37.529-24.87-60.04-24.87z" stroke="#00000000"/><path d="M6850.7 104.76l28.56 28.57 70.04-66.66" stroke="#000052" stroke-dasharray="44.14208145793904,92.94596948591214" stroke-dashoffset="137.088051"/></g><g fill="#ffffff" stroke-width="5" stroke-miterlimit="10"><path d="M7100 15.09c-22.511 0-44.123 8.952-60.04 24.87-15.918 15.917-24.87 37.529-24.87 60.04 0 22.511 8.952 44.123 24.87 60.04 15.917 15.918 37.529 24.87 60.04 24.87 22.511 0 44.123-8.952 60.04-24.87 15.918-15.917 24.87-37.529 24.87-60.04 0-22.511-8.952-44.123-24.87-60.04-15.917-15.918-37.529-24.87-60.04-24.87z" stroke="#00000000"/><path d="M7050.7 104.76l28.56 28.57 70.04-66.66" stroke="#000058" stroke-dasharray="47.23419040037097,89.85386054348022" stroke-dashoffset="137.088051"/></g><g fill="#ffffff" stroke-width="5" stroke-miterlimit="10"><path d="M7300 15.09c-22.511 0-44.123 8.952-60.04 24.87-15.918 15.917-24.87 37.529-24.87 60.04 0 22.511 8.952 44.123 24.87 60.04 15.917 15.918 37.529 24.87 60.04 24.87 22.511 0 44.123-8.952 60.04-24.87 15.918-15.917 24.87-37.529 24.87-60.04 0-22.511-8.952-44.123-24.87-60.04-15.917-15.918-37.529-24.87-60.04-24.87z" stroke="#00000000"/><path d="M7250.7 104.76l28.56 28.57 70.04-66.66" stroke="#00005e" stroke-dasharray="50.35185276896784,86.73619817488334" stroke-dashoffset="137.088051"/></g><g fill="#ffffff" stroke-width="5" stroke-miterlimit="10"><path d="M7500 15.09c-22.511 0-44.123 8.952-60.04 24.87-15.918 15.917-24.87 37.529-24.87 60.04 0 22.511 8.952 44.123 24.87 60.04 15.917 15.918 37.529 24.87 60.04 24.87 22.511 0 44.123-8.952 60.04-24.87 15.918-15.917 24.87-37.529 24.87-60.04 0-22.511-8.952-44.123-24.87-60.04-15.917-15.918-37.529-24.87-60.04-24.87z" stroke="#00000000"/><path d="M7450.7 104.76l28.56 28.57 70.04-66.66" stroke="#000063" stroke-dasharray="53.474311289734146,83.61373965411704" stroke-dashoffset="137.088051"/></g><g fill="#ffffff" stroke-width="5" stroke-miterlimit="10"><path d="M7700 15.09c-22.511 0-44.123 8.952-60.04 24.87-15.918 15.917-24.87 37.529-24.87 60.04 0 22.511 8.952 44.123 24.87 60.04 15.917 15.918 37.529 24.87 60.04 24.87 22.511 0 44.123-8.952 60.04-24.87 15.918-15.917 24.87-37.529 24.87-60.04 0-22.511-8.952-44.123-24.87-60.04-15.917-15.918-37.529-24.87-60.04-24.87z" stroke="#00000000"/><path d="M7650.7 104.76l28.56 28.57 70.04-66.66" stroke="#000069" stroke-dasharray="56.58192969035595,80.50612125349524" stroke-dashoffset="137.088051"/></g><g fill="#ffffff" stroke-width="5" stroke-miterlimit="10"><path d="M7900 15.09c-22.511 0-44.123 8.952-60.04 24.87-15.918 15.917-24.87 37.529-24.87 60.04 0 22.511 8.952 44.123 24.87 60.04 15.917 15.918 37.529 24.87 60.04 24.87 22.511 0 44.123-8.952 60.04-24.87 15.918-15.917 24.87-37.529 24.87-60.04 0-22.511-8.952-44.123-24.87-60.04-15.917-15.918-37.529-24.87-60.04-24.87z" stroke="#00000000"/><path d="M7850.7 104.76l28.56 28.57 70.04-66.66" stroke="#00006f" stroke-dasharray="59.656903852954585,77.43114709089659" stroke-dashoffset="137.088051"/></g><g fill="#ffffff" stroke-width="5" stroke-miterlimit="10"><path d="M8100 15.09c-22.511 0-44.123 8.952-60.04 24.87-15.918 15.917-24.87 37.529-24.87 60.04 0 22.511 8.952 44.123 24.87 60.04 15.917 15.918 37.529 24.87 60.04 24.87 22.511 0 44.123-8.952 60.04-24.87 15.918-15.917 24.87-37.529 24.87-60.04 0-22.511-8.952-44.123-24.87-60.04-15.917-15.918-37.529-24.87-60.04-24.87z" stroke="#00000000"/><path d="M8050.7 104.76l28.56 28.57 70.04-66.66" stroke="#000075" stroke-dasharray="62.68374980217987,74.40430114167131" stroke-dashoffset="137.088051"/></g><g fill="#ffffff" stroke-width="5" stroke-miterlimit="10"><path d="M8300 15.09c-22.511 0-44.123 8.952-60.04 24.87-15.918 15.917-24.87 37.529-24.87 60.04 0 22.511 8.952 44.123 24.87 60.04 15.917 15.918 37.529 24.87 60.04 24.87 22.511 0 44.123-8.952 60.04-24.87 15.918-15.917 24.87-37.529 24.87-60.04 0-22.511-8.952-44.123-24.87-60.04-15.917-15.918-37.529-24.87-60.04-24.87z" stroke="#00000000"/><path d="M8250.7 104.76l28.56 28.57 70.04-66.66" stroke="#00007a" stroke-dasharray="65.64955620113585,71.43849474271535" stroke-dashoffset="137.088051"/></g><g fill="#ffffff" stroke-width="5" stroke-miterlimit="10"><path d="M8500 15.09c-22.511 0-44.123 8.952-60.04 24.87-15.918 15.917-24.87 37.529-24.87 60.04 0 22.511 8.952 44.123 24.87 60.04 15.917 15.918 37.529 24.87 60.04 24.87 22.511 0 44.123-8.952 60.04-24.87 15.918-15.917 24.87-37.529 24.87-60.04 0-22.511-8.952-44.123-24.87-60.04-15.917-15.918-37.529-24.87-60.04-24.87z" stroke="#00000000"/><path d="M8450.7 104.76l28.56 28.57 70.04-66.66" stroke="#00007f" stroke-dasharray="68.54402547192558,68.54402547192561" stroke-dashoffset="137.088051"/></g><g fill="#ffffff" stroke-width="5" stroke-miterlimit="10"><path d="M8700 15.09c-22.511 0-44.123 8.952-60.04 24.87-15.918 15.917-24.87 37.529-24.87 60.04 0 22.511 8.952 44.123 24.87 60.04 15.917 15.918 37.529 24.87 60.04 24.87 22.511 0 44.123-8.952 60.04-24.87 15.918-15.917 24.87-37.529 24.87-60.04 0-22.511-8.952-44.123-24.87-60.04-15.917-15.918-37.529-24.87-60.04-24.87z" stroke="#00000000"/><path d="M8650.7 104.76l28.56 28.57 70.04-66.66" stroke="#000085" stroke-dasharray="71.35934996182608,65.7287009820251" stroke-dashoffset="137.088051"/></g><g fill="#ffffff" stroke-width="5" stroke-miterlimit="10"><path d="M8900 15.09c-22.511 0-44.123 8.952-60.04 24.87-15.918 15.917-24.87 37.529-24.87 60.04 0 22.511 8.952 44.123 24.87 60.04 15.917 15.918 37.529 24.87 60.04 24.87 22.511 0 44.123-8.952 60.04-24.87 15.918-15.917 24.87-37.529 24.87-60.04 0-22.511-8.952-44.123-24.87-60.04-15.917-15.918-37.529-24.87-60.04-24.87z" stroke="#00000000"/><path d="M8850.7 104.76l28.56 28.57 70.04-66.66" stroke="#00008a" stroke-dasharray="74.08997715345289,62.9980737903983" stroke-dashoffset="137.088051"/></g><g fill="#ffffff" stroke-width="5" stroke-miterlimit="10"><path d="M9100 15.09c-22.511 0-44.123 8.952-60.04 24.87-15.918 15.917-24.87 37.529-24.87 60.04 0 22.511 8.952 44.123 24.87 60.04 15.917 15.918 37.529 24.87 60.04 24.87 22.511 0 44.123-8.952 60.04-24.87 15.918-15.917 24.87-37.529 24.87-60.04 0-22.511-8.952-44.123-24.87-60.04-15.917-15.918-37.529-24.87-60.04-24.87z" stroke="#00000000"/><path d="M9050.7 104.76l28.56 28.57 70.04-66.66" stroke="#00008f" stroke-dasharray="76.73231430027839,60.35573664357279" stroke-dashoffset="137.088051"/></g><g fill="#ffffff" stroke-width="5" stroke-miterlimit="10"><path d="M9300 15.09c-22.511 0-44.123 8.952-60.04 24.87-15.918 15.917-24.87 37.529-24.87 60.04 0 22.511 8.952 44.123 24.87 60.04 15.917 15.918 37.529 24.87 60.04 24.87 22.511 0 44.123-8.952 60.04-24.87 15.918-15.917 24.87-37.529 24.87-60.04 0-22.511-8.952-44.123-24.87-60.04-15.917-15.918-37.529-24.87-60.04-24.87z" stroke="#00000000"/><path d="M9250.7 104.76l28.56 28.57 70.04-66.66" stroke="#000093" stroke-dasharray="79.28441298178308,57.80363796206811" stroke-dashoffset="137.088051"/></g><g fill="#ffffff" stroke-width="5" stroke-miterlimit="10"><path d="M9500 15.09c-22.511 0-44.123 8.952-60.04 24.87-15.918 15.917-24.87 37.529-24.87 60.04 0 22.511 8.952 44.123 24.87 60.04 15.917 15.918 37.529 24.87 60.04 24.87 22.511 0 44.123-8.952 60.04-24.87 15.918-15.917 24.87-37.529 24.87-60.04 0-22.511-8.952-44.123-24.87-60.04-15.917-15.918-37.529-24.87-60.04-24.87z" stroke="#00000000"/><path d="M9450.7 104.76l28.56 28.57 70.04-66.66" stroke="#000098" stroke-dasharray="81.74566222543253,55.34238871841867" stroke-dashoffset="137.088051"/></g><g fill="#ffffff" stroke-width="5" stroke-miterlimit="10"><path d="M9700 15.09c-22.511 0-44.123 8.952-60.04 24.87-15.918 15.917-24.87 37.529-24.87 60.04 0 22.511 8.952 44.123 24.87 60.04 15.917 15.918 37.529 24.87 60.04 24.87 22.511 0 44.123-8.952 60.04-24.87 15.918-15.917 24.87-37.529 24.87-60.04 0-22.511-8.952-44.123-24.87-60.04-15.917-15.918-37.529-24.87-60.04-24.87z" stroke="#00000000"/><path d="M9650.7 104.76l28.56 28.57 70.04-66.66" stroke="#00009c" stroke-dasharray="84.11650786834366,52.97154307550752" stroke-dashoffset="137.088051"/></g><g fill="#ffffff" stroke-width="5" stroke-miterlimit="10"><path d="M9900 15.09c-22.511 0-44.123 8.952-60.04 24.87-15.918 15.917-24.87 37.529-24.87 60.04 0 22.511 8.952 44.123 24.87 60.04 15.917 15.918 37.529 24.87 60.04 24.87 22.511 0 44.123-8.952 60.04-24.87 15.918-15.917 24.87-37.529 24.87-60.04 0-22.511-8.952-44.123-24.87-60.04-15.917-15.918-37.529-24.87-60.04-24.87z" stroke="#00000000"/><path d="M9850.7 104.76l28.56 28.57 70.04-66.66" stroke="#0000a1" stroke-dasharray="86.39820709226034,50.68984385159086" stroke-dashoffset="137.088051"/></g><g fill="#ffffff" stroke-width="5" stroke-miterlimit="10"><path d="M10100 15.09c-22.511 0-44.123 8.952-60.04 24.87-15.918 15.917-24.87 37.529-24.87 60.04 0 22.511 8.952 44.123 24.87 60.04 15.917 15.918 37.529 24.87 60.04 24.87 22.511 0 44.123-8.952 60.04-24.87 15.918-15.917 24.87-37.529 24.87-60.04 0-22.511-8.952-44.123-24.87-60.04-15.917-15.918-37.529-24.87-60.04-24.87z" stroke="#00000000"/><path d="M10050.7 104.76l28.56 28.57 70.04-66.66" stroke="#0000a5" stroke-dasharray="88.59262086645155,48.49543007739964" stroke-dashoffset="137.088051"/></g><g fill="#ffffff" stroke-width="5" stroke-miterlimit="10"><path d="M10300 15.09c-22.511 0-44.123 8.952-60.04 24.87-15.918 15.917-24.87 37.529-24.87 60.04 0 22.511 8.952 44.123 24.87 60.04 15.917 15.918 37.529 24.87 60.04 24.87 22.511 0 44.123-8.952 60.04-24.87 15.918-15.917 24.87-37.529 24.87-60.04 0-22.511-8.952-44.123-24.87-60.04-15.917-15.918-37.529-24.87-60.04-24.87z" stroke="#00000000"/><path d="M10250.7 104.76l28.56 28.57 70.04-66.66" stroke="#0000a9" stroke-dasharray="90.70204309166178,46.3860078521894" stroke-dashoffset="137.088051"/></g><g fill="#ffffff" stroke-width="5" stroke-miterlimit="10"><path d="M10500 15.09c-22.511 0-44.123 8.952-60.04 24.87-15.918 15.917-24.87 37.529-24.87 60.04 0 22.511 8.952 44.123 24.87 60.04 15.917 15.918 37.529 24.87 60.04 24.87 22.511 0 44.123-8.952 60.04-24.87 15.918-15.917 24.87-37.529 24.87-60.04 0-22.511-8.952-44.123-24.87-60.04-15.917-15.918-37.529-24.87-60.04-24.87z" stroke="#00000000"/><path d="M10450.7 104.76l28.56 28.57 70.04-66.66" stroke="#0000ac" stroke-dasharray="92.72906304229635,44.35898790155484" stroke-dashoffset="137.088051"/></g><g fill="#ffffff" stroke-width="5" stroke-miterlimit="10"><path d="M10700 15.09c-22.511 0-44.123 8.952-60.04 24.87-15.918 15.917-24.87 37.529-24.87 60.04 0 22.511 8.952 44.123 24.87 60.04 15.917 15.918 37.529 24.87 60.04 24.87 22.511 0 44.123-8.952 60.04-24.87 15.918-15.917 24.87-37.529 24.87-60.04 0-22.511-8.952-44.123-24.87-60.04-15.917-15.918-37.529-24.87-60.04-24.87z" stroke="#00000000"/><path d="M10650.7 104.76l28.56 28.57 70.04-66.66" stroke="#0000b0" stroke-dasharray="94.67645672695741,42.411594216893775" stroke-dashoffset="137.088051"/></g><g fill="#ffffff" stroke-width="5" stroke-miterlimit="10"><path d="M10900 15.09c-22.511 0-44.123 8.952-60.04 24.87-15.918 15.917-24.87 37.529-24.87 60.04 0 22.511 8.952 44.123 24.87 60.04 15.917 15.918 37.529 24.87 60.04 24.87 22.511 0 44.123-8.952 60.04-24.87 15.918-15.917 24.87-37.529 24.87-60.04 0-22.511-8.952-44.123-24.87-60.04-15.917-15.918-37.529-24.87-60.04-24.87z" stroke="#00000000"/><path d="M10850.7 104.76l28.56 28.57 70.04-66.66" stroke="#0000b4" stroke-dasharray="96.54710258745534,40.54094835639585" stroke-dashoffset="137.088051"/></g><g fill="#ffffff" stroke-width="5" stroke-miterlimit="10"><path d="M11100 15.09c-22.511 0-44.123 8.952-60.04 24.87-15.918 15.917-24.87 37.529-24.87 60.04 0 22.511 8.952 44.123 24.87 60.04 15.917 15.918 37.529 24.87 60.04 24.87 22.511 0 44.123-8.952 60.04-24.87 15.918-15.917 24.87-37.529 24.87-60.04 0-22.511-8.952-44.123-24.87-60.04-15.917-15.918-37.529-24.87-60.04-24.87z" stroke="#00000000"/><path d="M11050.7 104.76l28.56 28.57 70.04-66.66" stroke="#0000b7" stroke-dasharray="98.34391720443186,38.74413373941932" stroke-dashoffset="137.088051"/></g><g fill="#ffffff" stroke-width="5" stroke-miterlimit="10"><path d="M11300 15.09c-22.511 0-44.123 8.952-60.04 24.87-15.918 15.917-24.87 37.529-24.87 60.04 0 22.511 8.952 44.123 24.87 60.04 15.917 15.918 37.529 24.87 60.04 24.87 22.511 0 44.123-8.952 60.04-24.87 15.918-15.917 24.87-37.529 24.87-60.04 0-22.511-8.952-44.123-24.87-60.04-15.917-15.918-37.529-24.87-60.04-24.87z" stroke="#00000000"/><path d="M11250.7 104.76l28.56 28.57 70.04-66.66" stroke="#0000ba" stroke-dasharray="100.06980714898783,37.018243794863345" stroke-dashoffset="137.088051"/></g><g fill="#ffffff" stroke-width="5" stroke-miterlimit="10"><path d="M11500 15.09c-22.511 0-44.123 8.952-60.04 24.87-15.918 15.917-24.87 37.529-24.87 60.04 0 22.511 8.952 44.123 24.87 60.04 15.917 15.918 37.529 24.87 60.04 24.87 22.511 0 44.123-8.952 60.04-24.87 15.918-15.917 24.87-37.529 24.87-60.04 0-22.511-8.952-44.123-24.87-60.04-15.917-15.918-37.529-24.87-60.04-24.87z" stroke="#00000000"/><path d="M11450.7 104.76l28.56 28.57 70.04-66.66" stroke="#0000bd" stroke-dasharray="101.72763367196664,35.36041727188455" stroke-dashoffset="137.088051"/></g><g fill="#ffffff" stroke-width="5" stroke-miterlimit="10"><path d="M11700 15.09c-22.511 0-44.123 8.952-60.04 24.87-15.918 15.917-24.87 37.529-24.87 60.04 0 22.511 8.952 44.123 24.87 60.04 15.917 15.918 37.529 24.87 60.04 24.87 22.511 0 44.123-8.952 60.04-24.87 15.918-15.917 24.87-37.529 24.87-60.04 0-22.511-8.952-44.123-24.87-60.04-15.917-15.918-37.529-24.87-60.04-24.87z" stroke="#00000000"/><path d="M11650.7 104.76l28.56 28.57 70.04-66.66" stroke="#0000c0" stroke-dasharray="103.32018747273132,33.767863471119874" stroke-dashoffset="137.088051"/></g><g fill="#ffffff" stroke-width="5" stroke-miterlimit="10"><path d="M11900 15.09c-22.511 0-44.123 8.952-60.04 24.87-15.918 15.917-24.87 37.529-24.87 60.04 0 22.511 8.952 44.123 24.87 60.04 15.917 15.918 37.529 24.87 60.04 24.87 22.511 0 44.123-8.952 60.04-24.87 15.918-15.917 24.87-37.529 24.87-60.04 0-22.511-8.952-44.123-24.87-60.04-15.917-15.918-37.529-24.87-60.04-24.87z" stroke="#00000000"/><path d="M11850.7 104.76l28.56 28.57 70.04-66.66" stroke="#0000c3" stroke-dasharray="104.85017129386088,32.237879649990305" stroke-dashoffset="137.088051"/></g><g fill="#ffffff" stroke-width="5" stroke-miterlimit="10"><path d="M12100 15.09c-22.511 0-44.123 8.952-60.04 24.87-15.918 15.917-24.87 37.529-24.87 60.04 0 22.511 8.952 44.123 24.87 60.04 15.917 15.918 37.529 24.87 60.04 24.87 22.511 0 44.123-8.952 60.04-24.87 15.918-15.917 24.87-37.529 24.87-60.04 0-22.511-8.952-44.123-24.87-60.04-15.917-15.918-37.529-24.87-60.04-24.87z" stroke="#00000000"/><path d="M12050.7 104.76l28.56 28.57 70.04-66.66" stroke="#0000c6" stroke-dasharray="106.32018852837734,30.76786241547385" stroke-dashoffset="137.088051"/></g><g fill="#ffffff" stroke-width="5" stroke-miterlimit="10"><path d="M12300 15.09c-22.511 0-44.123 8.952-60.04 24.87-15.918 15.917-24.87 37.529-24.87 60.04 0 22.511 8.952 44.123 24.87 60.04 15.917 15.918 37.529 24.87 60.04 24.87 22.511 0 44.123-8.952 60.04-24.87 15.918-15.917 24.87-37.529 24.87-60.04 0-22.511-8.952-44.123-24.87-60.04-15.917-15.918-37.529-24.87-60.04-24.87z" stroke="#00000000"/><path d="M12250.7 104.76l28.56 28.57 70.04-66.66" stroke="#0000c8" stroke-dasharray="107.73273639763461,29.355314546216583" stroke-dashoffset="137.088051"/></g><g fill="#ffffff" stroke-width="5" stroke-miterlimit="10"><path d="M12500 15.09c-22.511 0-44.123 8.952-60.04 24.87-15.918 15.917-24.87 37.529-24.87 60.04 0 22.511 8.952 44.123 24.87 60.04 15.917 15.918 37.529 24.87 60.04 24.87 22.511 0 44.123-8.952 60.04-24.87 15.918-15.917 24.87-37.529 24.87-60.04 0-22.511-8.952-44.123-24.87-60.04-15.917-15.918-37.529-24.87-60.04-24.87z" stroke="#00000000"/><path d="M12450.7 104.76l28.56 28.57 70.04-66.66" stroke="#0000cb" stroke-dasharray="109.09020256439128,27.99784837945991" stroke-dashoffset="137.088051"/></g><g fill="#ffffff" stroke-width="5" stroke-miterlimit="10"><path d="M12700 15.09c-22.511 0-44.123 8.952-60.04 24.87-15.918 15.917-24.87 37.529-24.87 60.04 0 22.511 8.952 44.123 24.87 60.04 15.917 15.918 37.529 24.87 60.04 24.87 22.511 0 44.123-8.952 60.04-24.87 15.918-15.917 24.87-37.529 24.87-60.04 0-22.511-8.952-44.123-24.87-60.04-15.917-15.918-37.529-24.87-60.04-24.87z" stroke="#00000000"/><path d="M12650.7 104.76l28.56 28.57 70.04-66.66" stroke="#0000cd" stroke-dasharray="110.39486429405864,26.69318664979255" stroke-dashoffset="137.088051"/></g><g fill="#ffffff" stroke-width="5" stroke-miterlimit="10"><path d="M12900 15.09c-22.511 0-44.123 8.952-60.04 24.87-15.918 15.917-24.87 37.529-24.87 60.04 0 22.511 8.952 44.123 24.87 60.04 15.917 15.918 37.529 24.87 60.04 24.87 22.511 0 44.123-8.952 60.04-24.87 15.918-15.917 24.87-37.529 24.87-60.04 0-22.511-8.952-44.123-24.87-60.04-15.917-15.918-37.529-24.87-60.04-24.87z" stroke="#00000000"/><path d="M12850.7 104.76l28.56 28.57 70.04-66.66" stroke="#0000d0" stroke-dasharray="111.64888947609874,25.43916146775245" stroke-dashoffset="137.088051"/></g><g fill="#ffffff" stroke-width="5" stroke-miterlimit="10"><path d="M13100 15.09c-22.511 0-44.123 8.952-60.04 24.87-15.918 15.917-24.87 37.529-24.87 60.04 0 22.511 8.952 44.123 24.87 60.04 15.917 15.918 37.529 24.87 60.04 24.87 22.511 0 44.123-8.952 60.04-24.87 15.918-15.917 24.87-37.529 24.87-60.04 0-22.511-8.952-44.123-24.87-60.04-15.917-15.918-37.529-24.87-60.04-24.87z" stroke="#00000000"/><path d="M13050.7 104.76l28.56 28.57 70.04-66.66" stroke="#0000d2" stroke-dasharray="112.8543389753798,24.233711968471383" stroke-dashoffset="137.088051"/></g><g fill="#ffffff" stroke-width="5" stroke-miterlimit="10"><path d="M13300 15.09c-22.511 0-44.123 8.952-60.04 24.87-15.918 15.917-24.87 37.529-24.87 60.04 0 22.511 8.952 44.123 24.87 60.04 15.917 15.918 37.529 24.87 60.04 24.87 22.511 0 44.123-8.952 60.04-24.87 15.918-15.917 24.87-37.529 24.87-60.04 0-22.511-8.952-44.123-24.87-60.04-15.917-15.918-37.529-24.87-60.04-24.87z" stroke="#00000000"/><path d="M13250.7 104.76l28.56 28.57 70.04-66.66" stroke="#0000d4" stroke-dasharray="114.01316990754421,23.07488103630698" stroke-dashoffset="137.088051"/></g><g fill="#ffffff" stroke-width="5" stroke-miterlimit="10"><path d="M13500 15.09c-22.511 0-44.123 8.952-60.04 24.87-15.918 15.917-24.87 37.529-24.87 60.04 0 22.511 8.952 44.123 24.87 60.04 15.917 15.918 37.529 24.87 60.04 24.87 22.511 0 44.123-8.952 60.04-24.87 15.918-15.917 24.87-37.529 24.87-60.04 0-22.511-8.952-44.123-24.87-60.04-15.917-15.918-37.529-24.87-60.04-24.87z" stroke="#00000000"/><path d="M13450.7 104.76l28.56 28.57 70.04-66.66" stroke="#0000d6" stroke-dasharray="115.12723952966626,21.960811414184928" stroke-dashoffset="137.088051"/></g><g fill="#ffffff" stroke-width="5" stroke-miterlimit="10"><path d="M13700 15.09c-22.511 0-44.123 8.952-60.04 24.87-15.918 15.917-24.87 37.529-24.87 60.04 0 22.511 8.952 44.123 24.87 60.04 15.917 15.918 37.529 24.87 60.04 24.87 22.511 0 44.123-8.952 60.04-24.87 15.918-15.917 24.87-37.529 24.87-60.04 0-22.511-8.952-44.123-24.87-60.04-15.917-15.918-37.529-24.87-60.04-24.87z" stroke="#00000000"/><path d="M13650.7 104.76l28.56 28.57 70.04-66.66" stroke="#0000d8" stroke-dasharray="116.19830951316771,20.889741430683475" stroke-dashoffset="137.088051"/></g><g fill="#ffffff" stroke-width="5" stroke-miterlimit="10"><path d="M13900 15.09c-22.511 0-44.123 8.952-60.04 24.87-15.918 15.917-24.87 37.529-24.87 60.04 0 22.511 8.952 44.123 24.87 60.04 15.917 15.918 37.529 24.87 60.04 24.87 22.511 0 44.123-8.952 60.04-24.87 15.918-15.917 24.87-37.529 24.87-60.04 0-22.511-8.952-44.123-24.87-60.04-15.917-15.918-37.529-24.87-60.04-24.87z" stroke="#00000000"/><path d="M13850.7 104.76l28.56 28.57 70.04-66.66" stroke="#0000da" stroke-dasharray="117.22805042462436,19.860000519226826" stroke-dashoffset="137.088051"/></g><g fill="#ffffff" stroke-width="5" stroke-miterlimit="10"><path d="M14100 15.09c-22.511 0-44.123 8.952-60.04 24.87-15.918 15.917-24.87 37.529-24.87 60.04 0 22.511 8.952 44.123 24.87 60.04 15.917 15.918 37.529 24.87 60.04 24.87 22.511 0 44.123-8.952 60.04-24.87 15.918-15.917 24.87-37.529 24.87-60.04 0-22.511-8.952-44.123-24.87-60.04-15.917-15.918-37.529-24.87-60.04-24.87z" stroke="#00000000"/><path d="M14050.7 104.76l28.56 28.57 70.04-66.66" stroke="#0000dc" stroke-dasharray="118.21804628538843,18.87000465846277" stroke-dashoffset="137.088051"/></g><g fill="#ffffff" stroke-width="5" stroke-miterlimit="10"><path d="M14300 15.09c-22.511 0-44.123 8.952-60.04 24.87-15.918 15.917-24.87 37.529-24.87 60.04 0 22.511 8.952 44.123 24.87 60.04 15.917 15.918 37.529 24.87 60.04 24.87 22.511 0 44.123-8.952 60.04-24.87 15.918-15.917 24.87-37.529 24.87-60.04 0-22.511-8.952-44.123-24.87-60.04-15.917-15.918-37.529-24.87-60.04-24.87z" stroke="#00000000"/><path d="M14250.7 104.76l28.56 28.57 70.04-66.66" stroke="#0000de" stroke-dasharray="119.16979911577695,17.91825182807424" stroke-dashoffset="137.088051"/></g><g fill="#ffffff" stroke-width="5" stroke-miterlimit="10"><path d="M14500 15.09c-22.511 0-44.123 8.952-60.04 24.87-15.918 15.917-24.87 37.529-24.87 60.04 0 22.511 8.952 44.123 24.87 60.04 15.917 15.918 37.529 24.87 60.04 24.87 22.511 0 44.123-8.952 60.04-24.87 15.918-15.917 24.87-37.529 24.87-60.04 0-22.511-8.952-44.123-24.87-60.04-15.917-15.918-37.529-24.87-60.04-24.87z" stroke="#00000000"/><path d="M14450.7 104.76l28.56 28.57 70.04-66.66" stroke="#0000df" stroke-dasharray="120.08473339624567,17.003317547605516" stroke-dashoffset="137.088051"/></g><g fill="#ffffff" stroke-width="5" stroke-miterlimit="10"><path d="M14700 15.09c-22.511 0-44.123 8.952-60.04 24.87-15.918 15.917-24.87 37.529-24.87 60.04 0 22.511 8.952 44.123 24.87 60.04 15.917 15.918 37.529 24.87 60.04 24.87 22.511 0 44.123-8.952 60.04-24.87 15.918-15.917 24.87-37.529 24.87-60.04 0-22.511-8.952-44.123-24.87-60.04-15.917-15.918-37.529-24.87-60.04-24.87z" stroke="#00000000"/><path d="M14650.7 104.76l28.56 28.57 70.04-66.66" stroke="#0000e1" stroke-dasharray="120.96420039830178,16.1238505455494" stroke-dashoffset="137.088051"/></g><g fill="#ffffff" stroke-width="5" stroke-miterlimit="10"><path d="M14900 15.09c-22.511 0-44.123 8.952-60.04 24.87-15.918 15.917-24.87 37.529-24.87 60.04 0 22.511 8.952 44.123 24.87 60.04 15.917 15.918 37.529 24.87 60.04 24.87 22.511 0 44.123-8.952 60.04-24.87 15.918-15.917 24.87-37.529 24.87-60.04 0-22.511-8.952-44.123-24.87-60.04-15.917-15.918-37.529-24.87-60.04-24.87z" stroke="#00000000"/><path d="M14850.7 104.76l28.56 28.57 70.04-66.66" stroke="#0000e3" stroke-dasharray="121.80948235333165,15.278568590519544" stroke-dashoffset="137.088051"/></g><g fill="#ffffff" stroke-width="5" stroke-miterlimit="10"><path d="M15100 15.09c-22.511 0-44.123 8.952-60.04 24.87-15.918 15.917-24.87 37.529-24.87 60.04 0 22.511 8.952 44.123 24.87 60.04 15.917 15.918 37.529 24.87 60.04 24.87 22.511 0 44.123-8.952 60.04-24.87 15.918-15.917 24.87-37.529 24.87-60.04 0-22.511-8.952-44.123-24.87-60.04-15.917-15.918-37.529-24.87-60.04-24.87z" stroke="#00000000"/><path d="M15050.7 104.76l28.56 28.57 70.04-66.66" stroke="#0000e4" stroke-dasharray="122.62179643914598,14.466254504705203" stroke-dashoffset="137.088051"/></g><g fill="#ffffff" stroke-width="5" stroke-miterlimit="10"><path d="M15300 15.09c-22.511 0-44.123 8.952-60.04 24.87-15.918 15.917-24.87 37.529-24.87 60.04 0 22.511 8.952 44.123 24.87 60.04 15.917 15.918 37.529 24.87 60.04 24.87 22.511 0 44.123-8.952 60.04-24.87 15.918-15.917 24.87-37.529 24.87-60.04 0-22.511-8.952-44.123-24.87-60.04-15.917-15.918-37.529-24.87-60.04-24.87z" stroke="#00000000"/><path d="M15250.7 104.76l28.56 28.57 70.04-66.66" stroke="#0000e6" stroke-dasharray="123.40229857274367,13.685752371107508" stroke-dashoffset="137.088051"/></g><g fill="#ffffff" stroke-width="5" stroke-miterlimit="10"><path d="M15500 15.09c-22.511 0-44.123 8.952-60.04 24.87-15.918 15.917-24.87 37.529-24.87 60.04 0 22.511 8.952 44.123 24.87 60.04 15.917 15.918 37.529 24.87 60.04 24.87 22.511 0 44.123-8.952 60.04-24.87 15.918-15.917 24.87-37.529 24.87-60.04 0-22.511-8.952-44.123-24.87-60.04-15.917-15.918-37.529-24.87-60.04-24.87z" stroke="#00000000"/><path d="M15450.7 104.76l28.56 28.57 70.04-66.66" stroke="#0000e7" stroke-dasharray="124.15208700424093,12.935963939610263" stroke-dashoffset="137.088051"/></g><g fill="#ffffff" stroke-width="5" stroke-miterlimit="10"><path d="M15700 15.09c-22.511 0-44.123 8.952-60.04 24.87-15.918 15.917-24.87 37.529-24.87 60.04 0 22.511 8.952 44.123 24.87 60.04 15.917 15.918 37.529 24.87 60.04 24.87 22.511 0 44.123-8.952 60.04-24.87 15.918-15.917 24.87-37.529 24.87-60.04 0-22.511-8.952-44.123-24.87-60.04-15.917-15.918-37.529-24.87-60.04-24.87z" stroke="#00000000"/><path d="M15650.7 104.76l28.56 28.57 70.04-66.66" stroke="#0000e8" stroke-dasharray="124.87220571162936,12.215845232221826" stroke-dashoffset="137.088051"/></g><g fill="#ffffff" stroke-width="5" stroke-miterlimit="10"><path d="M15900 15.09c-22.511 0-44.123 8.952-60.04 24.87-15.918 15.917-24.87 37.529-24.87 60.04 0 22.511 8.952 44.123 24.87 60.04 15.917 15.918 37.529 24.87 60.04 24.87 22.511 0 44.123-8.952 60.04-24.87 15.918-15.917 24.87-37.529 24.87-60.04 0-22.511-8.952-44.123-24.87-60.04-15.917-15.918-37.529-24.87-60.04-24.87z" stroke="#00000000"/><path d="M15850.7 104.76l28.56 28.57 70.04-66.66" stroke="#0000ea" stroke-dasharray="125.5636475994215,11.524403344429686" stroke-dashoffset="137.088051"/></g><g fill="#ffffff" stroke-width="5" stroke-miterlimit="10"><path d="M16100 15.09c-22.511 0-44.123 8.952-60.04 24.87-15.918 15.917-24.87 37.529-24.87 60.04 0 22.511 8.952 44.123 24.87 60.04 15.917 15.918 37.529 24.87 60.04 24.87 22.511 0 44.123-8.952 60.04-24.87 15.918-15.917 24.87-37.529 24.87-60.04 0-22.511-8.952-44.123-24.87-60.04-15.917-15.918-37.529-24.87-60.04-24.87z" stroke="#00000000"/><path d="M16050.7 104.76l28.56 28.57 70.04-66.66" stroke="#0000eb" stroke-dasharray="126.22735750662743,10.860693437223759" stroke-dashoffset="137.088051"/></g><g fill="#ffffff" stroke-width="5" stroke-miterlimit="10"><path d="M16300 15.09c-22.511 0-44.123 8.952-60.04 24.87-15.918 15.917-24.87 37.529-24.87 60.04 0 22.511 8.952 44.123 24.87 60.04 15.917 15.918 37.529 24.87 60.04 24.87 22.511 0 44.123-8.952 60.04-24.87 15.918-15.917 24.87-37.529 24.87-60.04 0-22.511-8.952-44.123-24.87-60.04-15.917-15.918-37.529-24.87-60.04-24.87z" stroke="#00000000"/><path d="M16250.7 104.76l28.56 28.57 70.04-66.66" stroke="#0000ec" stroke-dasharray="126.86423503112837,10.223815912722817" stroke-dashoffset="137.088051"/></g><g fill="#ffffff" stroke-width="5" stroke-miterlimit="10"><path d="M16500 15.09c-22.511 0-44.123 8.952-60.04 24.87-15.918 15.917-24.87 37.529-24.87 60.04 0 22.511 8.952 44.123 24.87 60.04 15.917 15.918 37.529 24.87 60.04 24.87 22.511 0 44.123-8.952 60.04-24.87 15.918-15.917 24.87-37.529 24.87-60.04 0-22.511-8.952-44.123-24.87-60.04-15.917-15.918-37.529-24.87-60.04-24.87z" stroke="#00000000"/><path d="M16450.7 104.76l28.56 28.57 70.04-66.66" stroke="#0000ed" stroke-dasharray="127.47513717855597,9.612913765295222" stroke-dashoffset="137.088051"/></g><g fill="#ffffff" stroke-width="5" stroke-miterlimit="10"><path d="M16700 15.09c-22.511 0-44.123 8.952-60.04 24.87-15.918 15.917-24.87 37.529-24.87 60.04 0 22.511 8.952 44.123 24.87 60.04 15.917 15.918 37.529 24.87 60.04 24.87 22.511 0 44.123-8.952 60.04-24.87 15.918-15.917 24.87-37.529 24.87-60.04 0-22.511-8.952-44.123-24.87-60.04-15.917-15.918-37.529-24.87-60.04-24.87z" stroke="#00000000"/><path d="M16650.7 104.76l28.56 28.57 70.04-66.66" stroke="#0000ee" stroke-dasharray="128.06088084439804,9.027170099453137" stroke-dashoffset="137.088051"/></g><g fill="#ffffff" stroke-width="5" stroke-miterlimit="10"><path d="M16900 15.09c-22.511 0-44.123 8.952-60.04 24.87-15.918 15.917-24.87 37.529-24.87 60.04 0 22.511 8.952 44.123 24.87 60.04 15.917 15.918 37.529 24.87 60.04 24.87 22.511 0 44.123-8.952 60.04-24.87 15.918-15.917 24.87-37.529 24.87-60.04 0-22.511-8.952-44.123-24.87-60.04-15.917-15.918-37.529-24.87-60.04-24.87z" stroke="#00000000"/><path d="M16850.7 104.76l28.56 28.57 70.04-66.66" stroke="#0000ef" stroke-dasharray="128.6222451383405,8.465805805510678" stroke-dashoffset="137.088051"/></g><g fill="#ffffff" stroke-width="5" stroke-miterlimit="10"><path d="M17100 15.09c-22.511 0-44.123 8.952-60.04 24.87-15.918 15.917-24.87 37.529-24.87 60.04 0 22.511 8.952 44.123 24.87 60.04 15.917 15.918 37.529 24.87 60.04 24.87 22.511 0 44.123-8.952 60.04-24.87 15.918-15.917 24.87-37.529 24.87-60.04 0-22.511-8.952-44.123-24.87-60.04-15.917-15.918-37.529-24.87-60.04-24.87z" stroke="#00000000"/><path d="M17050.7 104.76l28.56 28.57 70.04-66.66" stroke="#0000f0" stroke-dasharray="129.1599735599098,7.928077383941398" stroke-dashoffset="137.088051"/></g><g fill="#ffffff" stroke-width="5" stroke-miterlimit="10"><path d="M17300 15.09c-22.511 0-44.123 8.952-60.04 24.87-15.918 15.917-24.87 37.529-24.87 60.04 0 22.511 8.952 44.123 24.87 60.04 15.917 15.918 37.529 24.87 60.04 24.87 22.511 0 44.123-8.952 60.04-24.87 15.918-15.917 24.87-37.529 24.87-60.04 0-22.511-8.952-44.123-24.87-60.04-15.917-15.918-37.529-24.87-60.04-24.87z" stroke="#00000000"/><path d="M17250.7 104.76l28.56 28.57 70.04-66.66" stroke="#0000f1" stroke-dasharray="129.6747760343635,7.413274909487684" stroke-dashoffset="137.088051"/></g><g fill="#ffffff" stroke-width="5" stroke-miterlimit="10"><path d="M17500 15.09c-22.511 0-44.123 8.952-60.04 24.87-15.918 15.917-24.87 37.529-24.87 60.04 0 22.511 8.952 44.123 24.87 60.04 15.917 15.918 37.529 24.87 60.04 24.87 22.511 0 44.123-8.952 60.04-24.87 15.918-15.917 24.87-37.529 24.87-60.04 0-22.511-8.952-44.123-24.87-60.04-15.917-15.918-37.529-24.87-60.04-24.87z" stroke="#00000000"/><path d="M17450.7 104.76l28.56 28.57 70.04-66.66" stroke="#0000f2" stroke-dasharray="130.16733081754086,6.920720126310317" stroke-dashoffset="137.088051"/></g><g fill="#ffffff" stroke-width="5" stroke-miterlimit="10"><path d="M17700 15.09c-22.511 0-44.123 8.952-60.04 24.87-15.918 15.917-24.87 37.529-24.87 60.04 0 22.511 8.952 44.123 24.87 60.04 15.917 15.918 37.529 24.87 60.04 24.87 22.511 0 44.123-8.952 60.04-24.87 15.918-15.917 24.87-37.529 24.87-60.04 0-22.511-8.952-44.123-24.87-60.04-15.917-15.918-37.529-24.87-60.04-24.87z" stroke="#00000000"/><path d="M17650.7 104.76l28.56 28.57 70.04-66.66" stroke="#0000f3" stroke-dasharray="130.63828627806564,6.449764665785545" stroke-dashoffset="137.088051"/></g><g fill="#ffffff" stroke-width="5" stroke-miterlimit="10"><path d="M17900 15.09c-22.511 0-44.123 8.952-60.04 24.87-15.918 15.917-24.87 37.529-24.87 60.04 0 22.511 8.952 44.123 24.87 60.04 15.917 15.918 37.529 24.87 60.04 24.87 22.511 0 44.123-8.952 60.04-24.87 15.918-15.917 24.87-37.529 24.87-60.04 0-22.511-8.952-44.123-24.87-60.04-15.917-15.918-37.529-24.87-60.04-24.87z" stroke="#00000000"/><path d="M17850.7 104.76l28.56 28.57 70.04-66.66" stroke="#0000f4" stroke-dasharray="131.0882625649213,5.999788378929883" stroke-dashoffset="137.088051"/></g><g fill="#ffffff" stroke-width="5" stroke-miterlimit="10"><path d="M18100 15.09c-22.511 0-44.123 8.952-60.04 24.87-15.918 15.917-24.87 37.529-24.87 60.04 0 22.511 8.952 44.123 24.87 60.04 15.917 15.918 37.529 24.87 60.04 24.87 22.511 0 44.123-8.952 60.04-24.87 15.918-15.917 24.87-37.529 24.87-60.04 0-22.511-8.952-44.123-24.87-60.04-15.917-15.918-37.529-24.87-60.04-24.87z" stroke="#00000000"/><path d="M18050.7 104.76l28.56 28.57 70.04-66.66" stroke="#0000f5" stroke-dasharray="131.5178531680148,5.570197775836392" stroke-dashoffset="137.088051"/></g><g fill="#ffffff" stroke-width="5" stroke-miterlimit="10"><path d="M18300 15.09c-22.511 0-44.123 8.952-60.04 24.87-15.918 15.917-24.87 37.529-24.87 60.04 0 22.511 8.952 44.123 24.87 60.04 15.917 15.918 37.529 24.87 60.04 24.87 22.511 0 44.123-8.952 60.04-24.87 15.918-15.917 24.87-37.529 24.87-60.04 0-22.511-8.952-44.123-24.87-60.04-15.917-15.918-37.529-24.87-60.04-24.87z" stroke="#00000000"/><path d="M18250.7 104.76l28.56 28.57 70.04-66.66" stroke="#0000f5" stroke-dasharray="131.92762637892463,5.16042456492656" stroke-dashoffset="137.088051"/></g><g fill="#ffffff" stroke-width="5" stroke-miterlimit="10"><path d="M18500 15.09c-22.511 0-44.123 8.952-60.04 24.87-15.918 15.917-24.87 37.529-24.87 60.04 0 22.511 8.952 44.123 24.87 60.04 15.917 15.918 37.529 24.87 60.04 24.87 22.511 0 44.123-8.952 60.04-24.87 15.918-15.917 24.87-37.529 24.87-60.04 0-22.511-8.952-44.123-24.87-60.04-15.917-15.918-37.529-24.87-60.04-24.87z" stroke="#00000000"/><path d="M18450.7 104.76l28.56 28.57 70.04-66.66" stroke="#0000f6" stroke-dasharray="132.31812665860494,4.76992428524625" stroke-dashoffset="137.088051"/></g><g fill="#ffffff" stroke-width="5" stroke-miterlimit="10"><path d="M18700 15.09c-22.511 0-44.123 8.952-60.04 24.87-15.918 15.917-24.87 37.529-24.87 60.04 0 22.511 8.952 44.123 24.87 60.04 15.917 15.918 37.529 24.87 60.04 24.87 22.511 0 44.123-8.952 60.04-24.87 15.918-15.917 24.87-37.529 24.87-60.04 0-22.511-8.952-44.123-24.87-60.04-15.917-15.918-37.529-24.87-60.04-24.87z" stroke="#00000000"/><path d="M18650.7 104.76l28.56 28.57 70.04-66.66" stroke="#0000f7" stroke-dasharray="132.68987591839715,4.398175025454045" stroke-dashoffset="137.088051"/></g><g fill="#ffffff" stroke-width="5" stroke-miterlimit="10"><path d="M18900 15.09c-22.511 0-44.123 8.952-60.04 24.87-15.918 15.917-24.87 37.529-24.87 60.04 0 22.511 8.952 44.123 24.87 60.04 15.917 15.918 37.529 24.87 60.04 24.87 22.511 0 44.123-8.952 60.04-24.87 15.918-15.917 24.87-37.529 24.87-60.04 0-22.511-8.952-44.123-24.87-60.04-15.917-15.918-37.529-24.87-60.04-24.87z" stroke="#00000000"/><path d="M18850.7 104.76l28.56 28.57 70.04-66.66" stroke="#0000f7" stroke-dasharray="133.04337472029238,4.044676223558823" stroke-dashoffset="137.088051"/></g><g fill="#ffffff" stroke-width="5" stroke-miterlimit="10"><path d="M19100 15.09c-22.511 0-44.123 8.952-60.04 24.87-15.918 15.917-24.87 37.529-24.87 60.04 0 22.511 8.952 44.123 24.87 60.04 15.917 15.918 37.529 24.87 60.04 24.87 22.511 0 44.123-8.952 60.04-24.87 15.918-15.917 24.87-37.529 24.87-60.04 0-22.511-8.952-44.123-24.87-60.04-15.917-15.918-37.529-24.87-60.04-24.87z" stroke="#00000000"/><path d="M19050.7 104.76l28.56 28.57 70.04-66.66" stroke="#0000f8" stroke-dasharray="133.37910340199295,3.7089475418582336" stroke-dashoffset="137.088051"/></g><g fill="#ffffff" stroke-width="5" stroke-miterlimit="10"><path d="M19300 15.09c-22.511 0-44.123 8.952-60.04 24.87-15.918 15.917-24.87 37.529-24.87 60.04 0 22.511 8.952 44.123 24.87 60.04 15.917 15.918 37.529 24.87 60.04 24.87 22.511 0 44.123-8.952 60.04-24.87 15.918-15.917 24.87-37.529 24.87-60.04 0-22.511-8.952-44.123-24.87-60.04-15.917-15.918-37.529-24.87-60.04-24.87z" stroke="#00000000"/><path d="M19250.7 104.76l28.56 28.57 70.04-66.66" stroke="#0000f9" stroke-dasharray="133.6975231319449,3.3905278119062827" stroke-dashoffset="137.088051"/></g><g fill="#ffffff" stroke-width="5" stroke-miterlimit="10"><path d="M19500 15.09c-22.511 0-44.123 8.952-60.04 24.87-15.918 15.917-24.87 37.529-24.87 60.04 0 22.511 8.952 44.123 24.87 60.04 15.917 15.918 37.529 24.87 60.04 24.87 22.511 0 44.123-8.952 60.04-24.87 15.918-15.917 24.87-37.529 24.87-60.04 0-22.511-8.952-44.123-24.87-60.04-15.917-15.918-37.529-24.87-60.04-24.87z" stroke="#00000000"/><path d="M19450.7 104.76l28.56 28.57 70.04-66.66" stroke="#0000f9" stroke-dasharray="133.9990768991552,3.0889740446959992" stroke-dashoffset="137.088051"/></g><g fill="#ffffff" stroke-width="5" stroke-miterlimit="10"><path d="M19700 15.09c-22.511 0-44.123 8.952-60.04 24.87-15.918 15.917-24.87 37.529-24.87 60.04 0 22.511 8.952 44.123 24.87 60.04 15.917 15.918 37.529 24.87 60.04 24.87 22.511 0 44.123-8.952 60.04-24.87 15.918-15.917 24.87-37.529 24.87-60.04 0-22.511-8.952-44.123-24.87-60.04-15.917-15.918-37.529-24.87-60.04-24.87z" stroke="#00000000"/><path d="M19650.7 104.76l28.56 28.57 70.04-66.66" stroke="#0000fa" stroke-dasharray="134.28419044227073,2.8038605015804667" stroke-dashoffset="137.088051"/></g><g fill="#ffffff" stroke-width="5" stroke-miterlimit="10"><path d="M19900 15.09c-22.511 0-44.123 8.952-60.04 24.87-15.918 15.917-24.87 37.529-24.87 60.04 0 22.511 8.952 44.123 24.87 60.04 15.917 15.918 37.529 24.87 60.04 24.87 22.511 0 44.123-8.952 60.04-24.87 15.918-15.917 24.87-37.529 24.87-60.04 0-22.511-8.952-44.123-24.87-60.04-15.917-15.918-37.529-24.87-60.04-24.87z" stroke="#00000000"/><path d="M19850.7 104.76l28.56 28.57 70.04-66.66" stroke="#0000fa" stroke-dasharray="134.5532731220781,2.5347778217730705" stroke-dashoffset="137.088051"/></g><g fill="#ffffff" stroke-width="5" stroke-miterlimit="10"><path d="M20100 15.09c-22.511 0-44.123 8.952-60.04 24.87-15.918 15.917-24.87 37.529-24.87 60.04 0 22.511 8.952 44.123 24.87 60.04 15.917 15.918 37.529 24.87 60.04 24.87 22.511 0 44.123-8.952 60.04-24.87 15.918-15.917 24.87-37.529 24.87-60.04 0-22.511-8.952-44.123-24.87-60.04-15.917-15.918-37.529-24.87-60.04-24.87z" stroke="#00000000"/><path d="M20050.7 104.76l28.56 28.57 70.04-66.66" stroke="#0000fb" stroke-dasharray="134.80671874128626,2.2813322025649185" stroke-dashoffset="137.088051"/></g><g fill="#ffffff" stroke-width="5" stroke-miterlimit="10"><path d="M20300 15.09c-22.511 0-44.123 8.952-60.04 24.87-15.918 15.917-24.87 37.529-24.87 60.04 0 22.511 8.952 44.123 24.87 60.04 15.917 15.918 37.529 24.87 60.04 24.87 22.511 0 44.123-8.952 60.04-24.87 15.918-15.917 24.87-37.529 24.87-60.04 0-22.511-8.952-44.123-24.87-60.04-15.917-15.918-37.529-24.87-60.04-24.87z" stroke="#00000000"/><path d="M20250.7 104.76l28.56 28.57 70.04-66.66" stroke="#0000fb" stroke-dasharray="135.04490631517658,2.043144628674601" stroke-dashoffset="137.088051"/></g><g fill="#ffffff" stroke-width="5" stroke-miterlimit="10"><path d="M20500 15.09c-22.511 0-44.123 8.952-60.04 24.87-15.918 15.917-24.87 37.529-24.87 60.04 0 22.511 8.952 44.123 24.87 60.04 15.917 15.918 37.529 24.87 60.04 24.87 22.511 0 44.123-8.952 60.04-24.87 15.918-15.917 24.87-37.529 24.87-60.04 0-22.511-8.952-44.123-24.87-60.04-15.917-15.918-37.529-24.87-60.04-24.87z" stroke="#00000000"/><path d="M20450.7 104.76l28.56 28.57 70.04-66.66" stroke="#0000fc" stroke-dasharray="135.26820079644628,1.8198501474049091" stroke-dashoffset="137.088051"/></g><g fill="#ffffff" stroke-width="5" stroke-miterlimit="10"><path d="M20700 15.09c-22.511 0-44.123 8.952-60.04 24.87-15.918 15.917-24.87 37.529-24.87 60.04 0 22.511 8.952 44.123 24.87 60.04 15.917 15.918 37.529 24.87 60.04 24.87 22.511 0 44.123-8.952 60.04-24.87 15.918-15.917 24.87-37.529 24.87-60.04 0-22.511-8.952-44.123-24.87-60.04-15.917-15.918-37.529-24.87-60.04-24.87z" stroke="#00000000"/><path d="M20650.7 104.76l28.56 28.57 70.04-66.66" stroke="#0000fc" stroke-dasharray="135.4769537573308,1.6110971865204002" stroke-dashoffset="137.088051"/></g><g fill="#ffffff" stroke-width="5" stroke-miterlimit="10"><path d="M20900 15.09c-22.511 0-44.123 8.952-60.04 24.87-15.918 15.917-24.87 37.529-24.87 60.04 0 22.511 8.952 44.123 24.87 60.04 15.917 15.918 37.529 24.87 60.04 24.87 22.511 0 44.123-8.952 60.04-24.87 15.918-15.917 24.87-37.529 24.87-60.04 0-22.511-8.952-44.123-24.87-60.04-15.917-15.918-37.529-24.87-60.04-24.87z" stroke="#00000000"/><path d="M20850.7 104.76l28.56 28.57 70.04-66.66" stroke="#0000fc" stroke-dasharray="135.67150403186653,1.4165469119846514" stroke-dashoffset="137.088051"/></g><g fill="#ffffff" stroke-width="5" stroke-miterlimit="10"><path d="M21100 15.09c-22.511 0-44.123 8.952-60.04 24.87-15.918 15.917-24.87 37.529-24.87 60.04 0 22.511 8.952 44.123 24.87 60.04 15.917 15.918 37.529 24.87 60.04 24.87 22.511 0 44.123-8.952 60.04-24.87 15.918-15.917 24.87-37.529 24.87-60.04 0-22.511-8.952-44.123-24.87-60.04-15.917-15.918-37.529-24.87-60.04-24.87z" stroke="#00000000"/><path d="M21050.7 104.76l28.56 28.57 70.04-66.66" stroke="#0000fd" stroke-dasharray="135.85217832094935,1.235872622901843" stroke-dashoffset="137.088051"/></g><g fill="#ffffff" stroke-width="5" stroke-miterlimit="10"><path d="M21300 15.09c-22.511 0-44.123 8.952-60.04 24.87-15.918 15.917-24.87 37.529-24.87 60.04 0 22.511 8.952 44.123 24.87 60.04 15.917 15.918 37.529 24.87 60.04 24.87 22.511 0 44.123-8.952 60.04-24.87 15.918-15.917 24.87-37.529 24.87-60.04 0-22.511-8.952-44.123-24.87-60.04-15.917-15.918-37.529-24.87-60.04-24.87z" stroke="#00000000"/><path d="M21250.7 104.76l28.56 28.57 70.04-66.66" stroke="#0000fd" stroke-dasharray="136.01929176265105,1.068759181200146" stroke-dashoffset="137.088051"/></g><g fill="#ffffff" stroke-width="5" stroke-miterlimit="10"><path d="M21500 15.09c-22.511 0-44.123 8.952-60.04 24.87-15.918 15.917-24.87 37.529-24.87 60.04 0 22.511 8.952 44.123 24.87 60.04 15.917 15.918 37.529 24.87 60.04 24.87 22.511 0 44.123-8.952 60.04-24.87 15.918-15.917 24.87-37.529 24.87-60.04 0-22.511-8.952-44.123-24.87-60.04-15.917-15.918-37.529-24.87-60.04-24.87z" stroke="#00000000"/><path d="M21450.7 104.76l28.56 28.57 70.04-66.66" stroke="#0000fd" stroke-dasharray="136.17314847007898,0.9149024737721919" stroke-dashoffset="137.088051"/></g><g fill="#ffffff" stroke-width="5" stroke-miterlimit="10"><path d="M21700 15.09c-22.511 0-44.123 8.952-60.04 24.87-15.918 15.917-24.87 37.529-24.87 60.04 0 22.511 8.952 44.123 24.87 60.04 15.917 15.918 37.529 24.87 60.04 24.87 22.511 0 44.123-8.952 60.04-24.87 15.918-15.917 24.87-37.529 24.87-60.04 0-22.511-8.952-44.123-24.87-60.04-15.917-15.918-37.529-24.87-60.04-24.87z" stroke="#00000000"/><path d="M21650.7 104.76l28.56 28.57 70.04-66.66" stroke="#0000fe" stroke-dasharray="136.31404203889946,0.7740089049517264" stroke-dashoffset="137.088051"/></g><g fill="#ffffff" stroke-width="5" stroke-miterlimit="10"><path d="M21900 15.09c-22.511 0-44.123 8.952-60.04 24.87-15.918 15.917-24.87 37.529-24.87 60.04 0 22.511 8.952 44.123 24.87 60.04 15.917 15.918 37.529 24.87 60.04 24.87 22.511 0 44.123-8.952 60.04-24.87 15.918-15.917 24.87-37.529 24.87-60.04 0-22.511-8.952-44.123-24.87-60.04-15.917-15.918-37.529-24.87-60.04-24.87z" stroke="#00000000"/><path d="M21850.7 104.76l28.56 28.57 70.04-66.66" stroke="#0000fe" stroke-dasharray="136.44225602649226,0.645794917358929" stroke-dashoffset="137.088051"/></g><g fill="#ffffff" stroke-width="5" stroke-miterlimit="10"><path d="M22100 15.09c-22.511 0-44.123 8.952-60.04 24.87-15.918 15.917-24.87 37.529-24.87 60.04 0 22.511 8.952 44.123 24.87 60.04 15.917 15.918 37.529 24.87 60.04 24.87 22.511 0 44.123-8.952 60.04-24.87 15.918-15.917 24.87-37.529 24.87-60.04 0-22.511-8.952-44.123-24.87-60.04-15.917-15.918-37.529-24.87-60.04-24.87z" stroke="#00000000"/><path d="M22050.7 104.76l28.56 28.57 70.04-66.66" stroke="#0000fe" stroke-dasharray="136.55806440456482,0.529986539286367" stroke-dashoffset="137.088051"/></g><g fill="#ffffff" stroke-width="5" stroke-miterlimit="10"><path d="M22300 15.09c-22.511 0-44.123 8.952-60.04 24.87-15.918 15.917-24.87 37.529-24.87 60.04 0 22.511 8.952 44.123 24.87 60.04 15.917 15.918 37.529 24.87 60.04 24.87 22.511 0 44.123-8.952 60.04-24.87 15.918-15.917 24.87-37.529 24.87-60.04 0-22.511-8.952-44.123-24.87-60.04-15.917-15.918-37.529-24.87-60.04-24.87z" stroke="#00000000"/><path d="M22250.7 104.76l28.56 28.57 70.04-66.66" stroke="#0000fe" stroke-dasharray="136.6617319869223,0.426318956928885" stroke-dashoffset="137.088051"/></g><g fill="#ffffff" stroke-width="5" stroke-miterlimit="10"><path d="M22500 15.09c-22.511 0-44.123 8.952-60.04 24.87-15.918 15.917-24.87 37.529-24.87 60.04 0 22.511 8.952 44.123 24.87 60.04 15.917 15.918 37.529 24.87 60.04 24.87 22.511 0 44.123-8.952 60.04-24.87 15.918-15.917 24.87-37.529 24.87-60.04 0-22.511-8.952-44.123-24.87-60.04-15.917-15.918-37.529-24.87-60.04-24.87z" stroke="#00000000"/><path d="M22450.7 104.76l28.56 28.57 70.04-66.66" stroke="#0000fe" stroke-dasharray="136.75351483397122,0.33453610987996146" stroke-dashoffset="137.088051"/></g><g fill="#ffffff" stroke-width="5" stroke-miterlimit="10"><path d="M22700 15.09c-22.511 0-44.123 8.952-60.04 24.87-15.918 15.917-24.87 37.529-24.87 60.04 0 22.511 8.952 44.123 24.87 60.04 15.917 15.918 37.529 24.87 60.04 24.87 22.511 0 44.123-8.952 60.04-24.87 15.918-15.917 24.87-37.529 24.87-60.04 0-22.511-8.952-44.123-24.87-60.04-15.917-15.918-37.529-24.87-60.04-24.87z" stroke="#00000000"/><path d="M22650.7 104.76l28.56 28.57 70.04-66.66" stroke="#0000ff" stroke-dasharray="136.83366063542175,0.2543903084294219" stroke-dashoffset="137.088051"/></g><g fill="#ffffff" stroke-width="5" stroke-miterlimit="10"><path d="M22900 15.09c-22.511 0-44.123 8.952-60.04 24.87-15.918 15.917-24.87 37.529-24.87 60.04 0 22.511 8.952 44.123 24.87 60.04 15.917 15.918 37.529 24.87 60.04 24.87 22.511 0 44.123-8.952 60.04-24.87 15.918-15.917 24.87-37.529 24.87-60.04 0-22.511-8.952-44.123-24.87-60.04-15.917-15.918-37.529-24.87-60.04-24.87z" stroke="#00000000"/><path d="M22850.7 104.76l28.56 28.57 70.04-66.66" stroke="#0000ff" stroke-dasharray="136.90240907255222,0.18564187129898027" stroke-dashoffset="137.088051"/></g><g fill="#ffffff" stroke-width="5" stroke-miterlimit="10"><path d="M23100 15.09c-22.511 0-44.123 8.952-60.04 24.87-15.918 15.917-24.87 37.529-24.87 60.04 0 22.511 8.952 44.123 24.87 60.04 15.917 15.918 37.529 24.87 60.04 24.87 22.511 0 44.123-8.952 60.04-24.87 15.918-15.917 24.87-37.529 24.87-60.04 0-22.511-8.952-44.123-24.87-60.04-15.917-15.918-37.529-24.87-60.04-24.87z" stroke="#00000000"/><path d="M23050.7 104.76l28.56 28.57 70.04-66.66" stroke="#0000ff" stroke-dasharray="136.9599921613026,0.12805878254858913" stroke-dashoffset="137.088051"/></g><g fill="#ffffff" stroke-width="5" stroke-miterlimit="10"><path d="M23300 15.09c-22.511 0-44.123 8.952-60.04 24.87-15.918 15.917-24.87 37.529-24.87 60.04 0 22.511 8.952 44.123 24.87 60.04 15.917 15.918 37.529 24.87 60.04 24.87 22.511 0 44.123-8.952 60.04-24.87 15.918-15.917 24.87-37.529 24.87-60.04 0-22.511-8.952-44.123-24.87-60.04-15.917-15.918-37.529-24.87-60.04-24.87z" stroke="#00000000"/><path d="M23250.7 104.76l28.56 28.57 70.04-66.66" stroke="#0000ff" stroke-dasharray="137.0066345773779,0.0814163664732988" stroke-dashoffset="137.088051"/></g><g fill="#ffffff" stroke-width="5" stroke-miterlimit="10"><path d="M23500 15.09c-22.511 0-44.123 8.952-60.04 24.87-15.918 15.917-24.87 37.529-24.87 60.04 0 22.511 8.952 44.123 24.87 60.04 15.917 15.918 37.529 24.87 60.04 24.87 22.511 0 44.123-8.952 60.04-24.87 15.918-15.917 24.87-37.529 24.87-60.04 0-22.511-8.952-44.123-24.87-60.04-15.917-15.918-37.529-24.87-60.04-24.87z" stroke="#00000000"/><path d="M23450.7 104.76l28.56 28.57 70.04-66.66" stroke="#0000ff" stroke-dasharray="137.04255396445913,0.04549697939205986" stroke-dashoffset="137.088051"/></g><g fill="#ffffff" stroke-width="5" stroke-miterlimit="10"><path d="M23700 15.09c-22.511 0-44.123 8.952-60.04 24.87-15.918 15.917-24.87 37.529-24.87 60.04 0 22.511 8.952 44.123 24.87 60.04 15.917 15.918 37.529 24.87 60.04 24.87 22.511 0 44.123-8.952 60.04-24.87 15.918-15.917 24.87-37.529 24.87-60.04 0-22.511-8.952-44.123-24.87-60.04-15.917-15.918-37.529-24.87-60.04-24.87z" stroke="#00000000"/><path d="M23650.7 104.76l28.56 28.57 70.04-66.66" stroke="#0000ff" stroke-dasharray="137.06796122654535,0.020089717305847236" stroke-dashoffset="137.088051"/></g><g fill="#ffffff" stroke-width="5" stroke-miterlimit="10"><path d="M23900 15.09c-22.511 0-44.123 8.952-60.04 24.87-15.918 15.917-24.87 37.529-24.87 60.04 0 22.511 8.952 44.123 24.87 60.04 15.917 15.918 37.529 24.87 60.04 24.87 22.511 0 44.123-8.952 60.04-24.87 15.918-15.917 24.87-37.529 24.87-60.04 0-22.511-8.952-44.123-24.87-60.04-15.917-15.918-37.529-24.87-60.04-24.87z" stroke="#00000000"/><path d="M23850.7 104.76l28.56 28.57 70.04-66.66" stroke="#0000ff" stroke-dasharray="137.08306080538,0.004990138471173434" stroke-dashoffset="137.088051"/></g><g fill="#ffffff" stroke-width="5" stroke-miterlimit="10"><path d="M24100 15.09c-22.511 0-44.123 8.952-60.04 24.87-15.918 15.917-24.87 37.529-24.87 60.04 0 22.511 8.952 44.123 24.87 60.04 15.917 15.918 37.529 24.87 60.04 24.87 22.511 0 44.123-8.952 60.04-24.87 15.918-15.917 24.87-37.529 24.87-60.04 0-22.511-8.952-44.123-24.87-60.04-15.917-15.918-37.529-24.87-60.04-24.87z" stroke="#ffffff" stroke-dasharray="0,533.4973315674285" stroke-dashoffset="533.497332"/><path d="M24050.7 104.76l28.56 28.57 70.04-66.66" stroke="#0000ff"/></g><g fill="#ffffff" stroke-width="5" stroke-miterlimit="10"><path d="M24300 15.09c-22.511 0-44.123 8.952-60.04 24.87-15.918 15.917-24.87 37.529-24.87 60.04 0 22.511 8.952 44.123 24.87 60.04 15.917 15.918 37.529 24.87 60.04 24.87 22.511 0 44.123-8.952 60.04-24.87 15.918-15.917 24.87-37.529 24.87-60.04 0-22.511-8.952-44.123-24.87-60.04-15.917-15.918-37.529-24.87-60.04-24.87z" stroke="#ffffff" stroke-dasharray="0.3190852888394934,533.1782462785891" stroke-dashoffset="533.497332"/><path d="M24250.7 104.76l28.56 28.57 70.04-66.66" stroke="#0000ff"/></g><g fill="#ffffff" stroke-width="5" stroke-miterlimit="10"><path d="M24500 15.09c-22.511 0-44.123 8.952-60.04 24.87-15.918 15.917-24.87 37.529-24.87 60.04 0 22.511 8.952 44.123 24.87 60.04 15.917 15.918 37.529 24.87 60.04 24.87 22.511 0 44.123-8.952 60.04-24.87 15.918-15.917 24.87-37.529 24.87-60.04 0-22.511-8.952-44.123-24.87-60.04-15.917-15.918-37.529-24.87-60.04-24.87z" stroke="#fefeff" stroke-dasharray="1.3206557720307868,532.1766757953977" stroke-dashoffset="533.497332"/><path d="M24450.7 104.76l28.56 28.57 70.04-66.66" stroke="#0000ff"/></g><g fill="#ffffff" stroke-width="5" stroke-miterlimit="10"><path d="M24700 15.09c-22.511 0-44.123 8.952-60.04 24.87-15.918 15.917-24.87 37.529-24.87 60.04 0 22.511 8.952 44.123 24.87 60.04 15.917 15.918 37.529 24.87 60.04 24.87 22.511 0 44.123-8.952 60.04-24.87 15.918-15.917 24.87-37.529 24.87-60.04 0-22.511-8.952-44.123-24.87-60.04-15.917-15.918-37.529-24.87-60.04-24.87z" stroke="#fefeff" stroke-dasharray="3.0783928300167944,530.4189387374117" stroke-dashoffset="533.497332"/><path d="M24650.7 104.76l28.56 28.57 70.04-66.66" stroke="#0000ff"/></g><g fill="#ffffff" stroke-width="5" stroke-miterlimit="10"><path d="M24900 15.09c-22.511 0-44.123 8.952-60.04 24.87-15.918 15.917-24.87 37.529-24.87 60.04 0 22.511 8.952 44.123 24.87 60.04 15.917 15.918 37.529 24.87 60.04 24.87 22.511 0 44.123-8.952 60.04-24.87 15.918-15.917 24.87-37.529 24.87-60.04 0-22.511-8.952-44.123-24.87-60.04-15.917-15.918-37.529-24.87-60.04-24.87z" stroke="#fcfcff" stroke-dasharray="5.676814322125089,527.8205172453034" stroke-dashoffset="533.497332"/><path d="M24850.7 104.76l28.56 28.57 70.04-66.66" stroke="#0000ff"/></g><g fill="#ffffff" stroke-width="5" stroke-miterlimit="10"><path d="M25100 15.09c-22.511 0-44.123 8.952-60.04 24.87-15.918 15.917-24.87 37.529-24.87 60.04 0 22.511 8.952 44.123 24.87 60.04 15.917 15.918 37.529 24.87 60.04 24.87 22.511 0 44.123-8.952 60.04-24.87 15.918-15.917 24.87-37.529 24.87-60.04 0-22.511-8.952-44.123-24.87-60.04-15.917-15.918-37.529-24.87-60.04-24.87z" stroke="#fbfbff" stroke-dasharray="9.212915659216906,524.2844159082117" stroke-dashoffset="533.497332"/><path d="M25050.7 104.76l28.56 28.57 70.04-66.66" stroke="#0000ff"/></g><g fill="#ffffff" stroke-width="5" stroke-miterlimit="10"><path d="M25300 15.09c-22.511 0-44.123 8.952-60.04 24.87-15.918 15.917-24.87 37.529-24.87 60.04 0 22.511 8.952 44.123 24.87 60.04 15.917 15.918 37.529 24.87 60.04 24.87 22.511 0 44.123-8.952 60.04-24.87 15.918-15.917 24.87-37.529 24.87-60.04 0-22.511-8.952-44.123-24.87-60.04-15.917-15.918-37.529-24.87-60.04-24.87z" stroke="#f8f8ff" stroke-dasharray="13.797849430857498,519.6994821365711" stroke-dashoffset="533.497332"/><path d="M25250.7 104.76l28.56 28.57 70.04-66.66" stroke="#0000ff"/></g><g fill="#ffffff" stroke-width="5" stroke-miterlimit="10"><path d="M25500 15.09c-22.511 0-44.123 8.952-60.04 24.87-15.918 15.917-24.87 37.529-24.87 60.04 0 22.511 8.952 44.123 24.87 60.04 15.917 15.918 37.529 24.87 60.04 24.87 22.511 0 44.123-8.952 60.04-24.87 15.918-15.917 24.87-37.529 24.87-60.04 0-22.511-8.952-44.123-24.87-60.04-15.917-15.918-37.529-24.87-60.04-24.87z" stroke="#f6f6ff" stroke-dasharray="19.558420066307857,513.9389115011206" stroke-dashoffset="533.497332"/><path d="M25450.7 104.76l28.56 28.57 70.04-66.66" stroke="#0000ff"/></g><g fill="#ffffff" stroke-width="5" stroke-miterlimit="10"><path d="M25700 15.09c-22.511 0-44.123 8.952-60.04 24.87-15.918 15.917-24.87 37.529-24.87 60.04 0 22.511 8.952 44.123 24.87 60.04 15.917 15.918 37.529 24.87 60.04 24.87 22.511 0 44.123-8.952 60.04-24.87 15.918-15.917 24.87-37.529 24.87-60.04 0-22.511-8.952-44.123-24.87-60.04-15.917-15.918-37.529-24.87-60.04-24.87z" stroke="#f2f2ff" stroke-dasharray="26.637952274748784,506.85937929267976" stroke-dashoffset="533.497332"/><path d="M25650.7 104.76l28.56 28.57 70.04-66.66" stroke="#0000ff"/></g><g fill="#ffffff" stroke-width="5" stroke-miterlimit="10"><path d="M25900 15.09c-22.511 0-44.123 8.952-60.04 24.87-15.918 15.917-24.87 37.529-24.87 60.04 0 22.511 8.952 44.123 24.87 60.04 15.917 15.918 37.529 24.87 60.04 24.87 22.511 0 44.123-8.952 60.04-24.87 15.918-15.917 24.87-37.529 24.87-60.04 0-22.511-8.952-44.123-24.87-60.04-15.917-15.918-37.529-24.87-60.04-24.87z" stroke="#eeeeff" stroke-dasharray="35.19572167798014,498.3016098894484" stroke-dashoffset="533.497332"/><path d="M25850.7 104.76l28.56 28.57 70.04-66.66" stroke="#0000ff"/></g><g fill="#ffffff" stroke-width="5" stroke-miterlimit="10"><path d="M26100 15.09c-22.511 0-44.123 8.952-60.04 24.87-15.918 15.917-24.87 37.529-24.87 60.04 0 22.511 8.952 44.123 24.87 60.04 15.917 15.918 37.529 24.87 60.04 24.87 22.511 0 44.123-8.952 60.04-24.87 15.918-15.917 24.87-37.529 24.87-60.04 0-22.511-8.952-44.123-24.87-60.04-15.917-15.918-37.529-24.87-60.04-24.87z" stroke="#e9e9ff" stroke-dasharray="45.40354733832251,488.09378422910606" stroke-dashoffset="533.497332"/><path d="M26050.7 104.76l28.56 28.57 70.04-66.66" stroke="#0000ff"/></g><g fill="#ffffff" stroke-width="5" stroke-miterlimit="10"><path d="M26300 15.09c-22.511 0-44.123 8.952-60.04 24.87-15.918 15.917-24.87 37.529-24.87 60.04 0 22.511 8.952 44.123 24.87 60.04 15.917 15.918 37.529 24.87 60.04 24.87 22.511 0 44.123-8.952 60.04-24.87 15.918-15.917 24.87-37.529 24.87-60.04 0-22.511-8.952-44.123-24.87-60.04-15.917-15.918-37.529-24.87-60.04-24.87z" stroke="#e4e4ff" stroke-dasharray="57.437311552270394,476.06002001515816" stroke-dashoffset="533.497332"/><path d="M26250.7 104.76l28.56 28.57 70.04-66.66" stroke="#0000ff"/></g><g fill="#ffffff" stroke-width="5" stroke-miterlimit="10"><path d="M26500 15.09c-22.511 0-44.123 8.952-60.04 24.87-15.918 15.917-24.87 37.529-24.87 60.04 0 22.511 8.952 44.123 24.87 60.04 15.917 15.918 37.529 24.87 60.04 24.87 22.511 0 44.123-8.952 60.04-24.87 15.918-15.917 24.87-37.529 24.87-60.04 0-22.511-8.952-44.123-24.87-60.04-15.917-15.918-37.529-24.87-60.04-24.87z" stroke="#ddddff" stroke-dasharray="71.46024707516713,462.0370844922614" stroke-dashoffset="533.497332"/><path d="M26450.7 104.76l28.56 28.57 70.04-66.66" stroke="#0000ff"/></g><g fill="#ffffff" stroke-width="5" stroke-miterlimit="10"><path d="M26700 15.09c-22.511 0-44.123 8.952-60.04 24.87-15.918 15.917-24.87 37.529-24.87 60.04 0 22.511 8.952 44.123 24.87 60.04 15.917 15.918 37.529 24.87 60.04 24.87 22.511 0 44.123-8.952 60.04-24.87 15.918-15.917 24.87-37.529 24.87-60.04 0-22.511-8.952-44.123-24.87-60.04-15.917-15.918-37.529-24.87-60.04-24.87z" stroke="#d5d5ff" stroke-dasharray="87.59446667251201,445.90286489491655" stroke-dashoffset="533.497332"/><path d="M26650.7 104.76l28.56 28.57 70.04-66.66" stroke="#0000ff"/></g><g fill="#ffffff" stroke-width="5" stroke-miterlimit="10"><path d="M26900 15.09c-22.511 0-44.123 8.952-60.04 24.87-15.918 15.917-24.87 37.529-24.87 60.04 0 22.511 8.952 44.123 24.87 60.04 15.917 15.918 37.529 24.87 60.04 24.87 22.511 0 44.123-8.952 60.04-24.87 15.918-15.917 24.87-37.529 24.87-60.04 0-22.511-8.952-44.123-24.87-60.04-15.917-15.918-37.529-24.87-60.04-24.87z" stroke="#ccccff" stroke-dasharray="105.87897915452162,427.618352412907" stroke-dashoffset="533.497332"/><path d="M26850.7 104.76l28.56 28.57 70.04-66.66" stroke="#0000ff"/></g><g fill="#ffffff" stroke-width="5" stroke-miterlimit="10"><path d="M27100 15.09c-22.511 0-44.123 8.952-60.04 24.87-15.918 15.917-24.87 37.529-24.87 60.04 0 22.511 8.952 44.123 24.87 60.04 15.917 15.918 37.529 24.87 60.04 24.87 22.511 0 44.123-8.952 60.04-24.87 15.918-15.917 24.87-37.529 24.87-60.04 0-22.511-8.952-44.123-24.87-60.04-15.917-15.918-37.529-24.87-60.04-24.87z" stroke="#c3c3ff" stroke-dasharray="126.21872549214272,407.27860607528584" stroke-dashoffset="533.497332"/><path d="M27050.7 104.76l28.56 28.57 70.04-66.66" stroke="#0000ff"/></g><g fill="#ffffff" stroke-width="5" stroke-miterlimit="10"><path d="M27300 15.09c-22.511 0-44.123 8.952-60.04 24.87-15.918 15.917-24.87 37.529-24.87 60.04 0 22.511 8.952 44.123 24.87 60.04 15.917 15.918 37.529 24.87 60.04 24.87 22.511 0 44.123-8.952 60.04-24.87 15.918-15.917 24.87-37.529 24.87-60.04 0-22.511-8.952-44.123-24.87-60.04-15.917-15.918-37.529-24.87-60.04-24.87z" stroke="#b8b8ff" stroke-dasharray="148.34082015510634,385.1565114123222" stroke-dashoffset="533.497332"/><path d="M27250.7 104.76l28.56 28.57 70.04-66.66" stroke="#0000ff"/></g><g fill="#ffffff" stroke-width="5" stroke-miterlimit="10"><path d="M27500 15.09c-22.511 0-44.123 8.952-60.04 24.87-15.918 15.917-24.87 37.529-24.87 60.04 0 22.511 8.952 44.123 24.87 60.04 15.917 15.918 37.529 24.87 60.04 24.87 22.511 0 44.123-8.952 60.04-24.87 15.918-15.917 24.87-37.529 24.87-60.04 0-22.511-8.952-44.123-24.87-60.04-15.917-15.918-37.529-24.87-60.04-24.87z" stroke="#adadff" stroke-dasharray="171.7850863405157,361.7122452269128" stroke-dashoffset="533.497332"/><path d="M27450.7 104.76l28.56 28.57 70.04-66.66" stroke="#0000ff"/></g><g fill="#ffffff" stroke-width="5" stroke-miterlimit="10"><path d="M27700 15.09c-22.511 0-44.123 8.952-60.04 24.87-15.918 15.917-24.87 37.529-24.87 60.04 0 22.511 8.952 44.123 24.87 60.04 15.917 15.918 37.529 24.87 60.04 24.87 22.511 0 44.123-8.952 60.04-24.87 15.918-15.917 24.87-37.529 24.87-60.04 0-22.511-8.952-44.123-24.87-60.04-15.917-15.918-37.529-24.87-60.04-24.87z" stroke="#a1a1ff" stroke-dasharray="195.95128026674485,337.5460513006837" stroke-dashoffset="533.497332"/><path d="M27650.7 104.76l28.56 28.57 70.04-66.66" stroke="#0000ff"/></g><g fill="#ffffff" stroke-width="5" stroke-miterlimit="10"><path d="M27900 15.09c-22.511 0-44.123 8.952-60.04 24.87-15.918 15.917-24.87 37.529-24.87 60.04 0 22.511 8.952 44.123 24.87 60.04 15.917 15.918 37.529 24.87 60.04 24.87 22.511 0 44.123-8.952 60.04-24.87 15.918-15.917 24.87-37.529 24.87-60.04 0-22.511-8.952-44.123-24.87-60.04-15.917-15.918-37.529-24.87-60.04-24.87z" stroke="#9696ff" stroke-dasharray="220.19649631684246,313.3008352505861" stroke-dashoffset="533.497332"/><path d="M27850.7 104.76l28.56 28.57 70.04-66.66" stroke="#0000ff"/></g><g fill="#ffffff" stroke-width="5" stroke-miterlimit="10"><path d="M28100 15.09c-22.511 0-44.123 8.952-60.04 24.87-15.918 15.917-24.87 37.529-24.87 60.04 0 22.511 8.952 44.123 24.87 60.04 15.917 15.918 37.529 24.87 60.04 24.87 22.511 0 44.123-8.952 60.04-24.87 15.918-15.917 24.87-37.529 24.87-60.04 0-22.511-8.952-44.123-24.87-60.04-15.917-15.918-37.529-24.87-60.04-24.87z" stroke="#8a8aff" stroke-dasharray="243.9425830468652,289.55474852056335" stroke-dashoffset="533.497332"/><path d="M28050.7 104.76l28.56 28.57 70.04-66.66" stroke="#0000ff"/></g><g fill="#ffffff" stroke-width="5" stroke-miterlimit="10"><path d="M28300 15.09c-22.511 0-44.123 8.952-60.04 24.87-15.918 15.917-24.87 37.529-24.87 60.04 0 22.511 8.952 44.123 24.87 60.04 15.917 15.918 37.529 24.87 60.04 24.87 22.511 0 44.123-8.952 60.04-24.87 15.918-15.917 24.87-37.529 24.87-60.04 0-22.511-8.952-44.123-24.87-60.04-15.917-15.918-37.529-24.87-60.04-24.87z" stroke="#8080ff" stroke-dasharray="266.7486657837142,266.74866578371433" stroke-dashoffset="533.497332"/><path d="M28250.7 104.76l28.56 28.57 70.04-66.66" stroke="#0000ff"/></g><g fill="#ffffff" stroke-width="5" stroke-miterlimit="10"><path d="M28500 15.09c-22.511 0-44.123 8.952-60.04 24.87-15.918 15.917-24.87 37.529-24.87 60.04 0 22.511 8.952 44.123 24.87 60.04 15.917 15.918 37.529 24.87 60.04 24.87 22.511 0 44.123-8.952 60.04-24.87 15.918-15.917 24.87-37.529 24.87-60.04 0-22.511-8.952-44.123-24.87-60.04-15.917-15.918-37.529-24.87-60.04-24.87z" stroke="#7575ff" stroke-dasharray="288.3315127402921,245.1658188271364" stroke-dashoffset="533.497332"/><path d="M28450.7 104.76l28.56 28.57 70.04-66.66" stroke="#0000ff"/></g><g fill="#ffffff" stroke-width="5" stroke-miterlimit="10"><path d="M28700 15.09c-22.511 0-44.123 8.952-60.04 24.87-15.918 15.917-24.87 37.529-24.87 60.04 0 22.511 8.952 44.123 24.87 60.04 15.917 15.918 37.529 24.87 60.04 24.87 22.511 0 44.123-8.952 60.04-24.87 15.918-15.917 24.87-37.529 24.87-60.04 0-22.511-8.952-44.123-24.87-60.04-15.917-15.918-37.529-24.87-60.04-24.87z" stroke="#6c6cff" stroke-dasharray="308.54638657015937,224.95094499726915" stroke-dashoffset="533.497332"/><path d="M28650.7 104.76l28.56 28.57 70.04-66.66" stroke="#0000ff"/></g><g fill="#ffffff" stroke-width="5" stroke-miterlimit="10"><path d="M28900 15.09c-22.511 0-44.123 8.952-60.04 24.87-15.918 15.917-24.87 37.529-24.87 60.04 0 22.511 8.952 44.123 24.87 60.04 15.917 15.918 37.529 24.87 60.04 24.87 22.511 0 44.123-8.952 60.04-24.87 15.918-15.917 24.87-37.529 24.87-60.04 0-22.511-8.952-44.123-24.87-60.04-15.917-15.918-37.529-24.87-60.04-24.87z" stroke="#6363ff" stroke-dasharray="327.3511599264938,206.1461716409348" stroke-dashoffset="533.497332"/><path d="M28850.7 104.76l28.56 28.57 70.04-66.66" stroke="#0000ff"/></g><g fill="#ffffff" stroke-width="5" stroke-miterlimit="10"><path d="M29100 15.09c-22.511 0-44.123 8.952-60.04 24.87-15.918 15.917-24.87 37.529-24.87 60.04 0 22.511 8.952 44.123 24.87 60.04 15.917 15.918 37.529 24.87 60.04 24.87 22.511 0 44.123-8.952 60.04-24.87 15.918-15.917 24.87-37.529 24.87-60.04 0-22.511-8.952-44.123-24.87-60.04-15.917-15.918-37.529-24.87-60.04-24.87z" stroke="#5a5aff" stroke-dasharray="344.77057995503367,188.72675161239488" stroke-dashoffset="533.497332"/><path d="M29050.7 104.76l28.56 28.57 70.04-66.66" stroke="#0000ff"/></g><g fill="#ffffff" stroke-width="5" stroke-miterlimit="10"><path d="M29300 15.09c-22.511 0-44.123 8.952-60.04 24.87-15.918 15.917-24.87 37.529-24.87 60.04 0 22.511 8.952 44.123 24.87 60.04 15.917 15.918 37.529 24.87 60.04 24.87 22.511 0 44.123-8.952 60.04-24.87 15.918-15.917 24.87-37.529 24.87-60.04 0-22.511-8.952-44.123-24.87-60.04-15.917-15.918-37.529-24.87-60.04-24.87z" stroke="#5353ff" stroke-dasharray="360.86812345209654,172.629208115332" stroke-dashoffset="533.497332"/><path d="M29250.7 104.76l28.56 28.57 70.04-66.66" stroke="#0000ff"/></g><g fill="#ffffff" stroke-width="5" stroke-miterlimit="10"><path d="M29500 15.09c-22.511 0-44.123 8.952-60.04 24.87-15.918 15.917-24.87 37.529-24.87 60.04 0 22.511 8.952 44.123 24.87 60.04 15.917 15.918 37.529 24.87 60.04 24.87 22.511 0 44.123-8.952 60.04-24.87 15.918-15.917 24.87-37.529 24.87-60.04 0-22.511-8.952-44.123-24.87-60.04-15.917-15.918-37.529-24.87-60.04-24.87z" stroke="#4b4bff" stroke-dasharray="375.72655856104336,157.77077300638518" stroke-dashoffset="533.497332"/><path d="M29450.7 104.76l28.56 28.57 70.04-66.66" stroke="#0000ff"/></g><g fill="#ffffff" stroke-width="5" stroke-miterlimit="10"><path d="M29700 15.09c-22.511 0-44.123 8.952-60.04 24.87-15.918 15.917-24.87 37.529-24.87 60.04 0 22.511 8.952 44.123 24.87 60.04 15.917 15.918 37.529 24.87 60.04 24.87 22.511 0 44.123-8.952 60.04-24.87 15.918-15.917 24.87-37.529 24.87-60.04 0-22.511-8.952-44.123-24.87-60.04-15.917-15.918-37.529-24.87-60.04-24.87z" stroke="#4545ff" stroke-dasharray="389.4356562580245,144.06167530940405" stroke-dashoffset="533.497332"/><path d="M29650.7 104.76l28.56 28.57 70.04-66.66" stroke="#0000ff"/></g><g fill="#ffffff" stroke-width="5" stroke-miterlimit="10"><path d="M29900 15.09c-22.511 0-44.123 8.952-60.04 24.87-15.918 15.917-24.87 37.529-24.87 60.04 0 22.511 8.952 44.123 24.87 60.04 15.917 15.918 37.529 24.87 60.04 24.87 22.511 0 44.123-8.952 60.04-24.87 15.918-15.917 24.87-37.529 24.87-60.04 0-22.511-8.952-44.123-24.87-60.04-15.917-15.918-37.529-24.87-60.04-24.87z" stroke="#3f3fff" stroke-dasharray="402.08496608012297,131.41236548730558" stroke-dashoffset="533.497332"/><path d="M29850.7 104.76l28.56 28.57 70.04-66.66" stroke="#0000ff"/></g><g fill="#ffffff" stroke-width="5" stroke-miterlimit="10"><path d="M30100 15.09c-22.511 0-44.123 8.952-60.04 24.87-15.918 15.917-24.87 37.529-24.87 60.04 0 22.511 8.952 44.123 24.87 60.04 15.917 15.918 37.529 24.87 60.04 24.87 22.511 0 44.123-8.952 60.04-24.87 15.918-15.917 24.87-37.529 24.87-60.04 0-22.511-8.952-44.123-24.87-60.04-15.917-15.918-37.529-24.87-60.04-24.87z" stroke="#3939ff" stroke-dasharray="413.7598899474278,119.7374416200008" stroke-dashoffset="533.497332"/><path d="M30050.7 104.76l28.56 28.57 70.04-66.66" stroke="#0000ff"/></g><g fill="#ffffff" stroke-width="5" stroke-miterlimit="10"><path d="M30300 15.09c-22.511 0-44.123 8.952-60.04 24.87-15.918 15.917-24.87 37.529-24.87 60.04 0 22.511 8.952 44.123 24.87 60.04 15.917 15.918 37.529 24.87 60.04 24.87 22.511 0 44.123-8.952 60.04-24.87 15.918-15.917 24.87-37.529 24.87-60.04 0-22.511-8.952-44.123-24.87-60.04-15.917-15.918-37.529-24.87-60.04-24.87z" stroke="#3434ff" stroke-dasharray="424.5397871481184,108.95754441931012" stroke-dashoffset="533.497332"/><path d="M30250.7 104.76l28.56 28.57 70.04-66.66" stroke="#0000ff"/></g><g fill="#ffffff" stroke-width="5" stroke-miterlimit="10"><path d="M30500 15.09c-22.511 0-44.123 8.952-60.04 24.87-15.918 15.917-24.87 37.529-24.87 60.04 0 22.511 8.952 44.123 24.87 60.04 15.917 15.918 37.529 24.87 60.04 24.87 22.511 0 44.123-8.952 60.04-24.87 15.918-15.917 24.87-37.529 24.87-60.04 0-22.511-8.952-44.123-24.87-60.04-15.917-15.918-37.529-24.87-60.04-24.87z" stroke="#2f2fff" stroke-dasharray="434.4972752757419,99.00005629168663" stroke-dashoffset="533.497332"/><path d="M30450.7 104.76l28.56 28.57 70.04-66.66" stroke="#0000ff"/></g><g fill="#ffffff" stroke-width="5" stroke-miterlimit="10"><path d="M30700 15.09c-22.511 0-44.123 8.952-60.04 24.87-15.918 15.917-24.87 37.529-24.87 60.04 0 22.511 8.952 44.123 24.87 60.04 15.917 15.918 37.529 24.87 60.04 24.87 22.511 0 44.123-8.952 60.04-24.87 15.918-15.917 24.87-37.529 24.87-60.04 0-22.511-8.952-44.123-24.87-60.04-15.917-15.918-37.529-24.87-60.04-24.87z" stroke="#2b2bff" stroke-dasharray="443.6982033841287,89.79912818329986" stroke-dashoffset="533.497332"/><path d="M30650.7 104.76l28.56 28.57 70.04-66.66" stroke="#0000ff"/></g><g fill="#ffffff" stroke-width="5" stroke-miterlimit="10"><path d="M30900 15.09c-22.511 0-44.123 8.952-60.04 24.87-15.918 15.917-24.87 37.529-24.87 60.04 0 22.511 8.952 44.123 24.87 60.04 15.917 15.918 37.529 24.87 60.04 24.87 22.511 0 44.123-8.952 60.04-24.87 15.918-15.917 24.87-37.529 24.87-60.04 0-22.511-8.952-44.123-24.87-60.04-15.917-15.918-37.529-24.87-60.04-24.87z" stroke="#2727ff" stroke-dasharray="452.201979903498,81.29535166393053" stroke-dashoffset="533.497332"/><path d="M30850.7 104.76l28.56 28.57 70.04-66.66" stroke="#0000ff"/></g><g fill="#ffffff" stroke-width="5" stroke-miterlimit="10"><path d="M31100 15.09c-22.511 0-44.123 8.952-60.04 24.87-15.918 15.917-24.87 37.529-24.87 60.04 0 22.511 8.952 44.123 24.87 60.04 15.917 15.918 37.529 24.87 60.04 24.87 22.511 0 44.123-8.952 60.04-24.87 15.918-15.917 24.87-37.529 24.87-60.04 0-22.511-8.952-44.123-24.87-60.04-15.917-15.918-37.529-24.87-60.04-24.87z" stroke="#2323ff" stroke-dasharray="460.06206815356524,73.43526341386331" stroke-dashoffset="533.497332"/><path d="M31050.7 104.76l28.56 28.57 70.04-66.66" stroke="#0000ff"/></g><g fill="#ffffff" stroke-width="5" stroke-miterlimit="10"><path d="M31300 15.09c-22.511 0-44.123 8.952-60.04 24.87-15.918 15.917-24.87 37.529-24.87 60.04 0 22.511 8.952 44.123 24.87 60.04 15.917 15.918 37.529 24.87 60.04 24.87 22.511 0 44.123-8.952 60.04-24.87 15.918-15.917 24.87-37.529 24.87-60.04 0-22.511-8.952-44.123-24.87-60.04-15.917-15.918-37.529-24.87-60.04-24.87z" stroke="#2020ff" stroke-dasharray="467.32654223177315,66.17078933565543" stroke-dashoffset="533.497332"/><path d="M31250.7 104.76l28.56 28.57 70.04-66.66" stroke="#0000ff"/></g><g fill="#ffffff" stroke-width="5" stroke-miterlimit="10"><path d="M31500 15.09c-22.511 0-44.123 8.952-60.04 24.87-15.918 15.917-24.87 37.529-24.87 60.04 0 22.511 8.952 44.123 24.87 60.04 15.917 15.918 37.529 24.87 60.04 24.87 22.511 0 44.123-8.952 60.04-24.87 15.918-15.917 24.87-37.529 24.87-60.04 0-22.511-8.952-44.123-24.87-60.04-15.917-15.918-37.529-24.87-60.04-24.87z" stroke="#1c1cff" stroke-dasharray="474.0386441246357,59.458687442792865" stroke-dashoffset="533.497332"/><path d="M31450.7 104.76l28.56 28.57 70.04-66.66" stroke="#0000ff"/></g><g fill="#ffffff" stroke-width="5" stroke-miterlimit="10"><path d="M31700 15.09c-22.511 0-44.123 8.952-60.04 24.87-15.918 15.917-24.87 37.529-24.87 60.04 0 22.511 8.952 44.123 24.87 60.04 15.917 15.918 37.529 24.87 60.04 24.87 22.511 0 44.123-8.952 60.04-24.87 15.918-15.917 24.87-37.529 24.87-60.04 0-22.511-8.952-44.123-24.87-60.04-15.917-15.918-37.529-24.87-60.04-24.87z" stroke="#1919ff" stroke-dasharray="480.23731130885085,53.26002025857771" stroke-dashoffset="533.497332"/><path d="M31650.7 104.76l28.56 28.57 70.04-66.66" stroke="#0000ff"/></g><g fill="#ffffff" stroke-width="5" stroke-miterlimit="10"><path d="M31900 15.09c-22.511 0-44.123 8.952-60.04 24.87-15.918 15.917-24.87 37.529-24.87 60.04 0 22.511 8.952 44.123 24.87 60.04 15.917 15.918 37.529 24.87 60.04 24.87 22.511 0 44.123-8.952 60.04-24.87 15.918-15.917 24.87-37.529 24.87-60.04 0-22.511-8.952-44.123-24.87-60.04-15.917-15.918-37.529-24.87-60.04-24.87z" stroke="#1717ff" stroke-dasharray="485.95766060879527,47.53967095863326" stroke-dashoffset="533.497332"/><path d="M31850.7 104.76l28.56 28.57 70.04-66.66" stroke="#0000ff"/></g><g fill="#ffffff" stroke-width="5" stroke-miterlimit="10"><path d="M32100 15.09c-22.511 0-44.123 8.952-60.04 24.87-15.918 15.917-24.87 37.529-24.87 60.04 0 22.511 8.952 44.123 24.87 60.04 15.917 15.918 37.529 24.87 60.04 24.87 22.511 0 44.123-8.952 60.04-24.87 15.918-15.917 24.87-37.529 24.87-60.04 0-22.511-8.952-44.123-24.87-60.04-15.917-15.918-37.529-24.87-60.04-24.87z" stroke="#1414ff" stroke-dasharray="491.23142343146753,42.26590813596102" stroke-dashoffset="533.497332"/><path d="M32050.7 104.76l28.56 28.57 70.04-66.66" stroke="#0000ff"/></g><g fill="#ffffff" stroke-width="5" stroke-miterlimit="10"><path d="M32300 15.09c-22.511 0-44.123 8.952-60.04 24.87-15.918 15.917-24.87 37.529-24.87 60.04 0 22.511 8.952 44.123 24.87 60.04 15.917 15.918 37.529 24.87 60.04 24.87 22.511 0 44.123-8.952 60.04-24.87 15.918-15.917 24.87-37.529 24.87-60.04 0-22.511-8.952-44.123-24.87-60.04-15.917-15.918-37.529-24.87-60.04-24.87z" stroke="#1212ff" stroke-dasharray="496.08733261373914,37.40999895368942" stroke-dashoffset="533.497332"/><path d="M32250.7 104.76l28.56 28.57 70.04-66.66" stroke="#0000ff"/></g><g fill="#ffffff" stroke-width="5" stroke-miterlimit="10"><path d="M32500 15.09c-22.511 0-44.123 8.952-60.04 24.87-15.918 15.917-24.87 37.529-24.87 60.04 0 22.511 8.952 44.123 24.87 60.04 15.917 15.918 37.529 24.87 60.04 24.87 22.511 0 44.123-8.952 60.04-24.87 15.918-15.917 24.87-37.529 24.87-60.04 0-22.511-8.952-44.123-24.87-60.04-15.917-15.918-37.529-24.87-60.04-24.87z" stroke="#1010ff" stroke-dasharray="500.55146374224614,32.9458678251824" stroke-dashoffset="533.497332"/><path d="M32450.7 104.76l28.56 28.57 70.04-66.66" stroke="#0000ff"/></g><g fill="#ffffff" stroke-width="5" stroke-miterlimit="10"><path d="M32700 15.09c-22.511 0-44.123 8.952-60.04 24.87-15.918 15.917-24.87 37.529-24.87 60.04 0 22.511 8.952 44.123 24.87 60.04 15.917 15.918 37.529 24.87 60.04 24.87 22.511 0 44.123-8.952 60.04-24.87 15.918-15.917 24.87-37.529 24.87-60.04 0-22.511-8.952-44.123-24.87-60.04-15.917-15.918-37.529-24.87-60.04-24.87z" stroke="#0e0eff" stroke-dasharray="504.6475349939303,28.84979657349821" stroke-dashoffset="533.497332"/><path d="M32650.7 104.76l28.56 28.57 70.04-66.66" stroke="#0000ff"/></g><g fill="#ffffff" stroke-width="5" stroke-miterlimit="10"><path d="M32900 15.09c-22.511 0-44.123 8.952-60.04 24.87-15.918 15.917-24.87 37.529-24.87 60.04 0 22.511 8.952 44.123 24.87 60.04 15.917 15.918 37.529 24.87 60.04 24.87 22.511 0 44.123-8.952 60.04-24.87 15.918-15.917 24.87-37.529 24.87-60.04 0-22.511-8.952-44.123-24.87-60.04-15.917-15.918-37.529-24.87-60.04-24.87z" stroke="#0c0cff" stroke-dasharray="508.397169921365,25.10016164606355" stroke-dashoffset="533.497332"/><path d="M32850.7 104.76l28.56 28.57 70.04-66.66" stroke="#0000ff"/></g><g fill="#ffffff" stroke-width="5" stroke-miterlimit="10"><path d="M33100 15.09c-22.511 0-44.123 8.952-60.04 24.87-15.918 15.917-24.87 37.529-24.87 60.04 0 22.511 8.952 44.123 24.87 60.04 15.917 15.918 37.529 24.87 60.04 24.87 22.511 0 44.123-8.952 60.04-24.87 15.918-15.917 24.87-37.529 24.87-60.04 0-22.511-8.952-44.123-24.87-60.04-15.917-15.918-37.529-24.87-60.04-24.87z" stroke="#0a0aff" stroke-dasharray="511.8201275423404,21.67720402508815" stroke-dashoffset="533.497332"/><path d="M33050.7 104.76l28.56 28.57 70.04-66.66" stroke="#0000ff"/></g><g fill="#ffffff" stroke-width="5" stroke-miterlimit="10"><path d="M33300 15.09c-22.511 0-44.123 8.952-60.04 24.87-15.918 15.917-24.87 37.529-24.87 60.04 0 22.511 8.952 44.123 24.87 60.04 15.917 15.918 37.529 24.87 60.04 24.87 22.511 0 44.123-8.952 60.04-24.87 15.918-15.917 24.87-37.529 24.87-60.04 0-22.511-8.952-44.123-24.87-60.04-15.917-15.918-37.529-24.87-60.04-24.87z" stroke="#0909ff" stroke-dasharray="514.9345038050014,18.56282776242715" stroke-dashoffset="533.497332"/><path d="M33250.7 104.76l28.56 28.57 70.04-66.66" stroke="#0000ff"/></g><g fill="#ffffff" stroke-width="5" stroke-miterlimit="10"><path d="M33500 15.09c-22.511 0-44.123 8.952-60.04 24.87-15.918 15.917-24.87 37.529-24.87 60.04 0 22.511 8.952 44.123 24.87 60.04 15.917 15.918 37.529 24.87 60.04 24.87 22.511 0 44.123-8.952 60.04-24.87 15.918-15.917 24.87-37.529 24.87-60.04 0-22.511-8.952-44.123-24.87-60.04-15.917-15.918-37.529-24.87-60.04-24.87z" stroke="#0808ff" stroke-dasharray="517.7569081135517,15.740423453876765" stroke-dashoffset="533.497332"/><path d="M33450.7 104.76l28.56 28.57 70.04-66.66" stroke="#0000ff"/></g><g fill="#ffffff" stroke-width="5" stroke-miterlimit="10"><path d="M33700 15.09c-22.511 0-44.123 8.952-60.04 24.87-15.918 15.917-24.87 37.529-24.87 60.04 0 22.511 8.952 44.123 24.87 60.04 15.917 15.918 37.529 24.87 60.04 24.87 22.511 0 44.123-8.952 60.04-24.87 15.918-15.917 24.87-37.529 24.87-60.04 0-22.511-8.952-44.123-24.87-60.04-15.917-15.918-37.529-24.87-60.04-24.87z" stroke="#0606ff" stroke-dasharray="520.3026181857493,13.194713381679207" stroke-dashoffset="533.497332"/><path d="M33650.7 104.76l28.56 28.57 70.04-66.66" stroke="#0000ff"/></g><g fill="#ffffff" stroke-width="5" stroke-miterlimit="10"><path d="M33900 15.09c-22.511 0-44.123 8.952-60.04 24.87-15.918 15.917-24.87 37.529-24.87 60.04 0 22.511 8.952 44.123 24.87 60.04 15.917 15.918 37.529 24.87 60.04 24.87 22.511 0 44.123-8.952 60.04-24.87 15.918-15.917 24.87-37.529 24.87-60.04 0-22.511-8.952-44.123-24.87-60.04-15.917-15.918-37.529-24.87-60.04-24.87z" stroke="#0505ff" stroke-dasharray="522.5857161101983,10.911615457230223" stroke-dashoffset="533.497332"/><path d="M33850.7 104.76l28.56 28.57 70.04-66.66" stroke="#0000ff"/></g><g fill="#ffffff" stroke-width="5" stroke-miterlimit="10"><path d="M34100 15.09c-22.511 0-44.123 8.952-60.04 24.87-15.918 15.917-24.87 37.529-24.87 60.04 0 22.511 8.952 44.123 24.87 60.04 15.917 15.918 37.529 24.87 60.04 24.87 22.511 0 44.123-8.952 60.04-24.87 15.918-15.917 24.87-37.529 24.87-60.04 0-22.511-8.952-44.123-24.87-60.04-15.917-15.918-37.529-24.87-60.04-24.87z" stroke="#0404ff" stroke-dasharray="524.619208097822,8.878123469606527" stroke-dashoffset="533.497332"/><path d="M34050.7 104.76l28.56 28.57 70.04-66.66" stroke="#0000ff"/></g><g fill="#ffffff" stroke-width="5" stroke-miterlimit="10"><path d="M34300 15.09c-22.511 0-44.123 8.952-60.04 24.87-15.918 15.917-24.87 37.529-24.87 60.04 0 22.511 8.952 44.123 24.87 60.04 15.917 15.918 37.529 24.87 60.04 24.87 22.511 0 44.123-8.952 60.04-24.87 15.918-15.917 24.87-37.529 24.87-60.04 0-22.511-8.952-44.123-24.87-60.04-15.917-15.918-37.529-24.87-60.04-24.87z" stroke="#0303ff" stroke-dasharray="526.4151300859095,7.082201481519113" stroke-dashoffset="533.497332"/><path d="M34250.7 104.76l28.56 28.57 70.04-66.66" stroke="#0000ff"/></g><g fill="#ffffff" stroke-width="5" stroke-miterlimit="10"><path d="M34500 15.09c-22.511 0-44.123 8.952-60.04 24.87-15.918 15.917-24.87 37.529-24.87 60.04 0 22.511 8.952 44.123 24.87 60.04 15.917 15.918 37.529 24.87 60.04 24.87 22.511 0 44.123-8.952 60.04-24.87 15.918-15.917 24.87-37.529 24.87-60.04 0-22.511-8.952-44.123-24.87-60.04-15.917-15.918-37.529-24.87-60.04-24.87z" stroke="#0303ff" stroke-dasharray="527.9846410566164,5.512690510812148" stroke-dashoffset="533.497332"/><path d="M34450.7 104.76l28.56 28.57 70.04-66.66" stroke="#0000ff"/></g><g fill="#ffffff" stroke-width="5" stroke-miterlimit="10"><path d="M34700 15.09c-22.511 0-44.123 8.952-60.04 24.87-15.918 15.917-24.87 37.529-24.87 60.04 0 22.511 8.952 44.123 24.87 60.04 15.917 15.918 37.529 24.87 60.04 24.87 22.511 0 44.123-8.952 60.04-24.87 15.918-15.917 24.87-37.529 24.87-60.04 0-22.511-8.952-44.123-24.87-60.04-15.917-15.918-37.529-24.87-60.04-24.87z" stroke="#0202ff" stroke-dasharray="529.3381056733205,4.159225894108097" stroke-dashoffset="533.497332"/><path d="M34650.7 104.76l28.56 28.57 70.04-66.66" stroke="#0000ff"/></g><g fill="#ffffff" stroke-width="5" stroke-miterlimit="10"><path d="M34900 15.09c-22.511 0-44.123 8.952-60.04 24.87-15.918 15.917-24.87 37.529-24.87 60.04 0 22.511 8.952 44.123 24.87 60.04 15.917 15.918 37.529 24.87 60.04 24.87 22.511 0 44.123-8.952 60.04-24.87 15.918-15.917 24.87-37.529 24.87-60.04 0-22.511-8.952-44.123-24.87-60.04-15.917-15.918-37.529-24.87-60.04-24.87z" stroke="#0101ff" stroke-dasharray="530.4851676147125,3.0121639527160746" stroke-dashoffset="533.497332"/><path d="M34850.7 104.76l28.56 28.57 70.04-66.66" stroke="#0000ff"/></g><g fill="#ffffff" stroke-width="5" stroke-miterlimit="10"><path d="M35100 15.09c-22.511 0-44.123 8.952-60.04 24.87-15.918 15.917-24.87 37.529-24.87 60.04 0 22.511 8.952 44.123 24.87 60.04 15.917 15.918 37.529 24.87 60.04 24.87 22.511 0 44.123-8.952 60.04-24.87 15.918-15.917 24.87-37.529 24.87-60.04 0-22.511-8.952-44.123-24.87-60.04-15.917-15.918-37.529-24.87-60.04-24.87z" stroke="#0101ff" stroke-dasharray="531.4348147942362,2.0625167731923546" stroke-dashoffset="533.497332"/><path d="M35050.7 104.76l28.56 28.57 70.04-66.66" stroke="#0000ff"/></g><g fill="#ffffff" stroke-width="5" stroke-miterlimit="10"><path d="M35300 15.09c-22.511 0-44.123 8.952-60.04 24.87-15.918 15.917-24.87 37.529-24.87 60.04 0 22.511 8.952 44.123 24.87 60.04 15.917 15.918 37.529 24.87 60.04 24.87 22.511 0 44.123-8.952 60.04-24.87 15.918-15.917 24.87-37.529 24.87-60.04 0-22.511-8.952-44.123-24.87-60.04-15.917-15.918-37.529-24.87-60.04-24.87z" stroke="#0101ff" stroke-dasharray="532.1954374876374,1.3018940797912097" stroke-dashoffset="533.497332"/><path d="M35250.7 104.76l28.56 28.57 70.04-66.66" stroke="#0000ff"/></g><g fill="#ffffff" stroke="#0000ff" stroke-width="5" stroke-miterlimit="10"><path d="M35500 15.09c-22.511 0-44.123 8.952-60.04 24.87-15.918 15.917-24.87 37.529-24.87 60.04 0 22.511 8.952 44.123 24.87 60.04 15.917 15.918 37.529 24.87 60.04 24.87 22.511 0 44.123-8.952 60.04-24.87 15.918-15.917 24.87-37.529 24.87-60.04 0-22.511-8.952-44.123-24.87-60.04-15.917-15.918-37.529-24.87-60.04-24.87z" stroke-dasharray="532.774880250313,0.7224513171155578" stroke-dashoffset="533.497332"/><path d="M35450.7 104.76l28.56 28.57 70.04-66.66"/></g><g fill="#ffffff" stroke="#0000ff" stroke-width="5" stroke-miterlimit="10"><path d="M35700 15.09c-22.511 0-44.123 8.952-60.04 24.87-15.918 15.917-24.87 37.529-24.87 60.04 0 22.511 8.952 44.123 24.87 60.04 15.917 15.918 37.529 24.87 60.04 24.87 22.511 0 44.123-8.952 60.04-24.87 15.918-15.917 24.87-37.529 24.87-60.04 0-22.511-8.952-44.123-24.87-60.04-15.917-15.918-37.529-24.87-60.04-24.87z" stroke-dasharray="533.1804883855438,0.3168431818847527" stroke-dashoffset="533.497332"/><path d="M35650.7 104.76l28.56 28.57 70.04-66.66"/></g><g fill="#ffffff" stroke="#0000ff" stroke-width="5" stroke-miterlimit="10"><path d="M35900 15.09c-22.511 0-44.123 8.952-60.04 24.87-15.918 15.917-24.87 37.529-24.87 60.04 0 22.511 8.952 44.123 24.87 60.04 15.917 15.918 37.529 24.87 60.04 24.87 22.511 0 44.123-8.952 60.04-24.87 15.918-15.917 24.87-37.529 24.87-60.04 0-22.511-8.952-44.123-24.87-60.04-15.917-15.918-37.529-24.87-60.04-24.87z" stroke-dasharray="533.4191496215856,0.07818194584299193" stroke-dashoffset="533.497332"/><path d="M35850.7 104.76l28.56 28.57 70.04-66.66"/></g><g fill="#ffffff" stroke="#0000ff" stroke-width="5" stroke-miterlimit="10"><path d="M36100 15.09c-22.511 0-44.123 8.952-60.04 24.87-15.918 15.917-24.87 37.529-24.87 60.04 0 22.511 8.952 44.123 24.87 60.04 15.917 15.918 37.529 24.87 60.04 24.87 22.511 0 44.123-8.952 60.04-24.87 15.918-15.917 24.87-37.529 24.87-60.04 0-22.511-8.952-44.123-24.87-60.04-15.917-15.918-37.529-24.87-60.04-24.87z"/><path d="M36050.7 104.76l28.56 28.57 70.04-66.66"/></g></svg>